<svg xmlns="http://www.w3.org/2000/svg" viewBox="0 0 1702.22 868.27"><defs><style>.cls-1{fill:#c6c6c6;}.cls-2{fill:#9e9e9e;}.cls-3{fill:#ddd;}.cls-4{fill:none;stroke:#b3b3b3;stroke-miterlimit:10;stroke-width:2px;stroke-dasharray:5;}</style></defs><title>Asset 2</title><g id="Layer_2" data-name="Layer 2"><g id="Layer_1-2" data-name="Layer 1"><polygon class="cls-1" points="1480.32 186.04 1444.57 113.08 1702.22 0 1480.32 186.04"/><polygon class="cls-2" points="1698.72 2.15 1480.32 186.04 1509.41 136.4 1698.72 2.15"/><polygon class="cls-3" points="1702.22 0 1509.41 136.4 1582.62 168.78 1702.22 0"/><polygon class="cls-3" points="1444.57 113.08 1375.93 91.31 1702.22 0 1444.57 113.08"/><path class="cls-4" d="M0,867.27c106.52-.22,248.11-41.62,276.53-121.1,11.47-32.08,1.28-66.45-35.61-89.86-46.62-29.58-97.8-2.55-85.21,38.74C176.4,762.89,296.61,813.12,388,813.83c52.8.41,102.35-17,121.33-52.7,30.29-56.91-23.12-93.47-64.6-138.6-51.57-56.11-178.17-158.79-111.08-228.19,47.1-48.71,162.9-45.83,232-25.86,81.2,23.49,146.5,72.5,183.16,127,54.49,81,31,177,136.48,243.14,45.48,28.54,100.06,29.24,146.91,1.27,42.63-25.45,41.22-62.2,44.67-97.68a811.28,811.28,0,0,0,.78-144.11c-3.72-46-49.89-89.19-121.15-92.63-18.49-.89-39.15,5.63-44.45,17.87-4,9.23,1.66,19.42,11,26.62,67.81,52.37,156.42,32.13,214.55-16.45,52.32-43.72,84.5-102.54,66.4-159.3-5.84-18.29-17.76-45.88,15.45-56.31,24.39-7.67,53.33,6.66,67,19.66,30.72,29.2,66.43,81.66,125.14,38,14.91-11.08,23.77-25.31,31.61-39.43,9.28-16.71,18.38-35.47,34-50"/></g></g></svg>