<svg xmlns="http://www.w3.org/2000/svg" viewBox="0 0 124.28 102.8"><defs><style>.cls-1{fill:#424242;}</style></defs><title>Asset 6</title><g id="Layer_2" data-name="Layer 2"><g id="Layer_2-2" data-name="Layer 2"><path class="cls-1" d="M81.37,86.27S105.41,73,112,49.68c5.74-20.21-4.67-33-27.17-35.6A65,65,0,0,0,48.91,24.27S90.25-2,114.06,12.94,117.27,67.06,81.37,86.27Z"/><path class="cls-1" d="M94.37,49.64l-52.43-.07a8.4,8.4,0,0,1-8.41-8.44h0A8.4,8.4,0,0,1,42,32.72l52.44.08a8.39,8.39,0,0,1,8.4,8.43h0A8.39,8.39,0,0,1,94.37,49.64Z"/><path class="cls-1" d="M76.47,94.08V42.48a8.4,8.4,0,0,0-8.42-8.42h0a8.4,8.4,0,0,0-8.42,8.42v51.6a8.39,8.39,0,0,0,8.42,8.42h0A8.39,8.39,0,0,0,76.47,94.08Z"/><path class="cls-1" d="M31.77,94.38V41a8.39,8.39,0,0,0-8.42-8.42h0A8.39,8.39,0,0,0,14.93,41V94.38a8.39,8.39,0,0,0,8.42,8.42h0A8.39,8.39,0,0,0,31.77,94.38Z"/><circle class="cls-1" cx="23.58" cy="19.06" r="8.57"/><circle class="cls-1" cx="8.34" cy="4.13" r="4.13"/><circle class="cls-1" cx="40.04" cy="14.16" r="4.13"/><circle class="cls-1" cx="4.13" cy="30.62" r="4.13"/><rect class="cls-1" x="15.55" y="3.57" width="1.68" height="17.68" transform="translate(-4.03 14.79) rotate(-43.79)"/><polygon class="cls-1" points="25.18 19.9 24.65 18.3 41.49 12.94 42.02 14.54 25.18 19.9"/><polygon class="cls-1" points="6.58 30.77 5.67 29.32 20.44 19.44 21.36 20.82 6.58 30.77"/></g></g></svg>