<svg xmlns="http://www.w3.org/2000/svg" viewBox="0 0 1097 123"><defs><style>.cls-1{fill:#ff5400;}.cls-2{fill:#0074ca;}.cls-3{fill:#424242;}.cls-4{fill:#fff;}</style></defs><title>Asset 8</title><g id="Layer_2" data-name="Layer 2"><g id="Layer_2-2" data-name="Layer 2"><path class="cls-1" d="M94.94,100.65S123,85.11,130.66,58c6.7-23.58-5.45-38.49-31.71-41.53A75.79,75.79,0,0,0,57.07,28.31s48.23-30.63,76-13.22S136.82,78.23,94.94,100.65Z"/><path class="cls-2" d="M110.1,57.92l-61.17-.09A9.79,9.79,0,0,1,39.12,48h0A9.79,9.79,0,0,1,49,38.18l61.17.09a9.79,9.79,0,0,1,9.81,9.84h0A9.79,9.79,0,0,1,110.1,57.92Z"/><path class="cls-2" d="M89.22,109.76V49.57a9.8,9.8,0,0,0-9.82-9.83h0a9.8,9.8,0,0,0-9.83,9.83v60.19a9.8,9.8,0,0,0,9.83,9.83h0A9.8,9.8,0,0,0,89.22,109.76Z"/><path class="cls-2" d="M37.06,110.12V47.78A9.79,9.79,0,0,0,27.24,38h0a9.79,9.79,0,0,0-9.82,9.82v62.34a9.79,9.79,0,0,0,9.82,9.82h0A9.79,9.79,0,0,0,37.06,110.12Z"/><circle class="cls-2" cx="27.51" cy="22.24" r="10"/><circle class="cls-2" cx="9.73" cy="4.82" r="4.82"/><circle class="cls-2" cx="46.71" cy="16.52" r="4.82"/><circle class="cls-2" cx="4.82" cy="35.72" r="4.82"/><rect class="cls-2" x="18.14" y="4.16" width="1.96" height="20.63" transform="translate(-4.7 17.26) rotate(-43.79)"/><polygon class="cls-2" points="29.38 23.22 28.76 21.34 48.41 15.09 49.03 16.97 29.38 23.22"/><polygon class="cls-2" points="7.68 35.9 6.61 34.2 23.85 22.68 24.92 24.29 7.68 35.9"/><path class="cls-3" d="M169.25,40.15a3,3,0,0,1-.82-2.21V10.45a2.84,2.84,0,0,1,.77-2.12,3,3,0,0,1,2.14-.75h16.5c1.91,0,2.87.81,2.87,2.44s-1,2.4-2.87,2.4H174.4v9h12.5c1.91,0,2.87.82,2.87,2.45s-1,2.4-2.87,2.4H174.4V37.94a3.09,3.09,0,0,1-.8,2.21,2.84,2.84,0,0,1-2.16.85A2.94,2.94,0,0,1,169.25,40.15Z"/><path class="cls-3" d="M210.89,19.54c1.55,1.58,2.33,4,2.33,7.21V38.22a2.65,2.65,0,0,1-.75,2,2.83,2.83,0,0,1-2.07.73,2.76,2.76,0,0,1-2-.75,2.65,2.65,0,0,1-.77-2v-1a6.17,6.17,0,0,1-2.52,2.87,7.5,7.5,0,0,1-4,1,9.17,9.17,0,0,1-4.18-.94,7.4,7.4,0,0,1-3-2.59,6.49,6.49,0,0,1-1.08-3.66,5.85,5.85,0,0,1,1.29-4,7.76,7.76,0,0,1,4.21-2.11,38.14,38.14,0,0,1,8-.66h1.18V26.05a4.78,4.78,0,0,0-1-3.36,4.18,4.18,0,0,0-3.2-1.06,10.36,10.36,0,0,0-2.77.4c-.94.27-2,.65-3.34,1.15a4.63,4.63,0,0,1-1.78.61,1.76,1.76,0,0,1-1.39-.61,2.31,2.31,0,0,1-.54-1.6,2.36,2.36,0,0,1,.4-1.38,3.88,3.88,0,0,1,1.34-1.11,15.74,15.74,0,0,1,3.92-1.41,20.55,20.55,0,0,1,4.49-.51Q208.57,17.17,210.89,19.54Zm-4.74,15.75a5.74,5.74,0,0,0,1.48-4.07v-1h-.85a33.61,33.61,0,0,0-4.89.28,4.75,4.75,0,0,0-2.49,1,2.52,2.52,0,0,0-.75,1.93,3.19,3.19,0,0,0,1.06,2.47,3.72,3.72,0,0,0,2.61,1A5,5,0,0,0,206.15,35.29Z"/><path class="cls-3" d="M223.35,39.63a9.94,9.94,0,0,1-4-4.13,13.24,13.24,0,0,1-1.41-6.25,13.15,13.15,0,0,1,1.48-6.33,10.45,10.45,0,0,1,4.16-4.25,12.41,12.41,0,0,1,6.16-1.5,13.91,13.91,0,0,1,3.69.51,12.58,12.58,0,0,1,3.26,1.41,2.93,2.93,0,0,1,1.51,2.49,2.64,2.64,0,0,1-.5,1.67,1.55,1.55,0,0,1-1.29.64,2.75,2.75,0,0,1-1.08-.24,8.46,8.46,0,0,1-1.13-.56,12.2,12.2,0,0,0-2-1,6,6,0,0,0-2.16-.36,5.49,5.49,0,0,0-4.49,1.91A8.37,8.37,0,0,0,224,29.15a8.31,8.31,0,0,0,1.58,5.43,5.48,5.48,0,0,0,4.49,1.9,5.69,5.69,0,0,0,2.09-.35,16.35,16.35,0,0,0,2-1,9.87,9.87,0,0,1,1.22-.64,2.76,2.76,0,0,1,1-.21,1.57,1.57,0,0,1,1.27.66,2.62,2.62,0,0,1,.51,1.65,2.58,2.58,0,0,1-.35,1.38,3.14,3.14,0,0,1-1.15,1.06,12.26,12.26,0,0,1-3.38,1.48,14.65,14.65,0,0,1-4,.54A12.19,12.19,0,0,1,223.35,39.63Z"/><path class="cls-3" d="M262.43,18a2.66,2.66,0,0,1,.8,2V38.27a2.54,2.54,0,0,1-.83,2,3,3,0,0,1-2.13.76,2.87,2.87,0,0,1-2-.71,2.52,2.52,0,0,1-.75-1.93V37.19a7.48,7.48,0,0,1-2.91,2.89,8.46,8.46,0,0,1-4.14,1q-8.46,0-8.46-9.49V20a2.66,2.66,0,0,1,.8-2,3,3,0,0,1,2.12-.75,3,3,0,0,1,2.16.75,2.66,2.66,0,0,1,.8,2V31.64a5.59,5.59,0,0,0,1,3.62A3.83,3.83,0,0,0,252,36.44a5.05,5.05,0,0,0,3.92-1.62,6.15,6.15,0,0,0,1.48-4.31V20a2.66,2.66,0,0,1,.8-2,3,3,0,0,1,2.12-.75A3.05,3.05,0,0,1,262.43,18Z"/><path class="cls-3" d="M270.16,40.27a2.65,2.65,0,0,1-.82-2.09V10.12a2.57,2.57,0,0,1,.82-2.07,3.09,3.09,0,0,1,2.09-.71,3.21,3.21,0,0,1,2.12.71,2.55,2.55,0,0,1,.84,2.07V38.18a2.63,2.63,0,0,1-.84,2.09,3.17,3.17,0,0,1-2.12.73A3.06,3.06,0,0,1,270.16,40.27Z"/><path class="cls-3" d="M295.56,38.74a1.93,1.93,0,0,1-.91,1.72A4.41,4.41,0,0,1,292,41l-1.27-.1q-7.9-.56-7.9-8.46V22.15h-2.35a3,3,0,0,1-1.95-.57,2,2,0,0,1-.68-1.64,2,2,0,0,1,.68-1.65,3,3,0,0,1,1.95-.56h2.35V13.41a2.64,2.64,0,0,1,.8-2,3,3,0,0,1,2.16-.76,2.93,2.93,0,0,1,2.12.76,2.64,2.64,0,0,1,.8,2v4.32h4a3,3,0,0,1,1.95.56,2,2,0,0,1,.68,1.65,2,2,0,0,1-.68,1.64,3,3,0,0,1-1.95.57h-4V32.82c0,2.32,1.06,3.55,3.19,3.71l1.27.1C294.78,36.72,295.56,37.42,295.56,38.74Z"/><path class="cls-3" d="M316,17.71a2.53,2.53,0,0,1,1.39-.4,2.94,2.94,0,0,1,1.95.73,2.26,2.26,0,0,1,.87,1.81,2.55,2.55,0,0,1-.28,1.08L307.12,47.81a2.61,2.61,0,0,1-2.49,1.6,2.91,2.91,0,0,1-1.9-.68,2.14,2.14,0,0,1-.82-1.72,3,3,0,0,1,.28-1.17l3.19-6.72-8.74-18.19a2.52,2.52,0,0,1-.23-1.08,2.3,2.3,0,0,1,.91-1.84,3.24,3.24,0,0,1,2.1-.75,2.71,2.71,0,0,1,1.45.4,2.67,2.67,0,0,1,1,1.25l6.58,14.52L315,19A2.71,2.71,0,0,1,316,17.71Z"/><path class="cls-3" d="M343.34,39.07a13.85,13.85,0,0,1-5.48-5.92,20,20,0,0,1-1.93-9,20,20,0,0,1,1.91-9,13.71,13.71,0,0,1,5.47-5.9,18.18,18.18,0,0,1,16.81,0,13.78,13.78,0,0,1,5.45,5.9,20,20,0,0,1,1.9,9,19.89,19.89,0,0,1-1.93,9,13.83,13.83,0,0,1-5.47,5.92,17.94,17.94,0,0,1-16.73,0Zm15.51-5.92c1.7-2.1,2.56-5.11,2.56-9s-.86-6.91-2.56-9a9.74,9.74,0,0,0-14.29,0q-2.56,3.14-2.56,9t2.56,9a9.68,9.68,0,0,0,14.29,0Z"/><path class="cls-3" d="M381.52,13.27a5.16,5.16,0,0,0-1,3.38v1.08h4c1.76,0,2.63.74,2.63,2.21s-.87,2.21-2.63,2.21h-4v16a2.57,2.57,0,0,1-.83,2.06,3.08,3.08,0,0,1-2.09.71,3.19,3.19,0,0,1-2.11-.71,2.52,2.52,0,0,1-.85-2.06v-16h-2.35c-1.75,0-2.63-.74-2.63-2.21s.88-2.21,2.63-2.21h2.35V17.4A9.83,9.83,0,0,1,377,10.47a9.52,9.52,0,0,1,6.55-2.84l1.23-.1a4.27,4.27,0,0,1,2.65.4,1.89,1.89,0,0,1,.78,1.67c0,1.35-.77,2.1-2.3,2.26l-1.23.09A4.25,4.25,0,0,0,381.52,13.27Z"/><path class="cls-3" d="M404,40.15a3,3,0,0,1-.83-2.21V10.35a2.85,2.85,0,0,1,3-3,3,3,0,0,1,2.23.83,2.92,2.92,0,0,1,.83,2.18V37.94a3,3,0,0,1-.83,2.21,3,3,0,0,1-2.23.85A2.9,2.9,0,0,1,404,40.15Z"/><path class="cls-3" d="M435.34,19.52c1.34,1.56,2,3.93,2,7.09V38.18a2.73,2.73,0,0,1-.78,2.06,2.9,2.9,0,0,1-2.14.76,3,3,0,0,1-2.16-.76,2.7,2.7,0,0,1-.8-2.06V26.94a6.07,6.07,0,0,0-1-3.9,3.89,3.89,0,0,0-3.17-1.22,5.36,5.36,0,0,0-4.07,1.6,6,6,0,0,0-1.52,4.28V38.18a2.7,2.7,0,0,1-.8,2.06,3,3,0,0,1-2.16.76,2.92,2.92,0,0,1-2.14-.76,2.73,2.73,0,0,1-.78-2.06V20a2.6,2.6,0,0,1,.8-2,3,3,0,0,1,2.16-.75,2.78,2.78,0,0,1,2,.73,2.49,2.49,0,0,1,.78,1.9v1.27a7.94,7.94,0,0,1,3.15-3,9.43,9.43,0,0,1,4.46-1Q433.32,17.17,435.34,19.52Z"/><path class="cls-3" d="M451.79,13.27a5.1,5.1,0,0,0-1,3.38v1.08h4c1.76,0,2.64.74,2.64,2.21s-.88,2.21-2.64,2.21h-4v16a2.56,2.56,0,0,1-.82,2.06,3.11,3.11,0,0,1-2.09.71,3.19,3.19,0,0,1-2.12-.71,2.55,2.55,0,0,1-.85-2.06v-16h-2.34c-1.76,0-2.64-.74-2.64-2.21s.88-2.21,2.64-2.21h2.34V17.4a9.83,9.83,0,0,1,2.33-6.93,9.55,9.55,0,0,1,6.56-2.84l1.22-.1a4.32,4.32,0,0,1,2.66.4,1.91,1.91,0,0,1,.77,1.67c0,1.35-.77,2.1-2.3,2.26l-1.22.09A4.21,4.21,0,0,0,451.79,13.27Z"/><path class="cls-3" d="M464.22,39.63a10,10,0,0,1-4.11-4.18,13.17,13.17,0,0,1-1.46-6.35,13.05,13.05,0,0,1,1.46-6.32,10.17,10.17,0,0,1,4.11-4.16,13.89,13.89,0,0,1,12.36,0,10.06,10.06,0,0,1,4.09,4.16,13.39,13.39,0,0,1,1.43,6.32,13.51,13.51,0,0,1-1.43,6.35,9.94,9.94,0,0,1-4.09,4.18,13.81,13.81,0,0,1-12.36,0Zm10.5-5a8.68,8.68,0,0,0,1.51-5.55,8.7,8.7,0,0,0-1.51-5.52,5.17,5.17,0,0,0-4.32-1.9,5.25,5.25,0,0,0-4.35,1.9,8.64,8.64,0,0,0-1.53,5.52A8.68,8.68,0,0,0,466,34.65a5.21,5.21,0,0,0,4.32,1.88A5.27,5.27,0,0,0,474.72,34.65Z"/><path class="cls-3" d="M501.7,17.78a2.3,2.3,0,0,1,.71,1.83,2.55,2.55,0,0,1-.62,1.88,3.66,3.66,0,0,1-2.2.8l-1.41.14a5.75,5.75,0,0,0-4.07,1.88,6.17,6.17,0,0,0-1.29,4v9.87a2.61,2.61,0,0,1-.85,2.09,3.15,3.15,0,0,1-2.11.73,3,3,0,0,1-2.09-.73,2.66,2.66,0,0,1-.83-2.09V20a2.51,2.51,0,0,1,.83-2,3,3,0,0,1,2-.71,2.84,2.84,0,0,1,2,.68,2.52,2.52,0,0,1,.76,1.95v1.88a6.91,6.91,0,0,1,2.65-3.19,8.13,8.13,0,0,1,3.93-1.27l.65,0A2.53,2.53,0,0,1,501.7,17.78Z"/><path class="cls-3" d="M538,19.4q2,2.24,2,7.21V38.18a2.66,2.66,0,0,1-.83,2.09A3.14,3.14,0,0,1,537,41a3.08,3.08,0,0,1-2.09-.73,2.65,2.65,0,0,1-.82-2.09V26.61a5.77,5.77,0,0,0-.92-3.69,3.43,3.43,0,0,0-2.79-1.1,4.6,4.6,0,0,0-3.67,1.57,6.36,6.36,0,0,0-1.36,4.31V38.18a2.69,2.69,0,0,1-.82,2.09,3.08,3.08,0,0,1-2.1.73,3.15,3.15,0,0,1-2.11-.73,2.64,2.64,0,0,1-.85-2.09V26.61a5.84,5.84,0,0,0-.91-3.69,3.45,3.45,0,0,0-2.8-1.1,4.53,4.53,0,0,0-3.64,1.57,6.46,6.46,0,0,0-1.34,4.31V38.18a2.61,2.61,0,0,1-.85,2.09,3.15,3.15,0,0,1-2.11.73,3,3,0,0,1-2.09-.73,2.66,2.66,0,0,1-.83-2.09V20a2.49,2.49,0,0,1,.85-2,3.19,3.19,0,0,1,2.11-.71,2.92,2.92,0,0,1,2,.68,2.47,2.47,0,0,1,.78,1.95V21a7.38,7.38,0,0,1,2.89-2.87,8.61,8.61,0,0,1,4.16-1c3.44,0,5.75,1.44,6.91,4.32a7.76,7.76,0,0,1,3.05-3.15,9,9,0,0,1,4.56-1.17A7.32,7.32,0,0,1,538,19.4Z"/><path class="cls-3" d="M563.06,19.54c1.55,1.58,2.32,4,2.32,7.21V38.22a2.65,2.65,0,0,1-.75,2,2.83,2.83,0,0,1-2.07.73,2.73,2.73,0,0,1-2-.75,2.62,2.62,0,0,1-.78-2v-1a6.15,6.15,0,0,1-2.51,2.87,7.55,7.55,0,0,1-4,1,9.21,9.21,0,0,1-4.19-.94,7.47,7.47,0,0,1-3-2.59,6.49,6.49,0,0,1-1.08-3.66,5.85,5.85,0,0,1,1.29-4,7.8,7.8,0,0,1,4.21-2.11,38.18,38.18,0,0,1,8-.66h1.17V26.05a4.83,4.83,0,0,0-1-3.36,4.2,4.2,0,0,0-3.2-1.06,10.36,10.36,0,0,0-2.77.4c-.94.27-2.06.65-3.34,1.15a4.66,4.66,0,0,1-1.79.61,1.75,1.75,0,0,1-1.38-.61,2.31,2.31,0,0,1-.54-1.6,2.36,2.36,0,0,1,.4-1.38,3.83,3.83,0,0,1,1.33-1.11,15.82,15.82,0,0,1,3.93-1.41,20.48,20.48,0,0,1,4.49-.51C559.13,17.17,561.51,18,563.06,19.54Zm-4.75,15.75a5.69,5.69,0,0,0,1.48-4.07v-1H559a33.61,33.61,0,0,0-4.89.28,4.75,4.75,0,0,0-2.49,1,2.52,2.52,0,0,0-.76,1.93,3.23,3.23,0,0,0,1.06,2.47,3.76,3.76,0,0,0,2.61,1A5,5,0,0,0,558.31,35.29Z"/><path class="cls-3" d="M585.64,38.74a1.92,1.92,0,0,1-.92,1.72,4.39,4.39,0,0,1-2.6.49l-1.27-.1q-7.9-.56-7.9-8.46V22.15H570.6a3,3,0,0,1-2-.57,2,2,0,0,1-.68-1.64,2,2,0,0,1,.68-1.65,3,3,0,0,1,2-.56H573V13.41a2.64,2.64,0,0,1,.8-2,3,3,0,0,1,2.16-.76,3,3,0,0,1,2.12.76,2.64,2.64,0,0,1,.8,2v4.32h4a3,3,0,0,1,1.95.56,2,2,0,0,1,.68,1.65,2,2,0,0,1-.68,1.64,3,3,0,0,1-1.95.57h-4V32.82c0,2.32,1.06,3.55,3.19,3.71l1.27.1C584.86,36.72,585.64,37.42,585.64,38.74Z"/><path class="cls-3" d="M589.07,12.21a3,3,0,0,1-.94-2.28,2.89,2.89,0,0,1,.94-2.26,4.21,4.21,0,0,1,5,0,2.85,2.85,0,0,1,1,2.26,3,3,0,0,1-.94,2.28,4.14,4.14,0,0,1-5.08,0Zm.45,28.06a2.65,2.65,0,0,1-.82-2.09V20a2.56,2.56,0,0,1,.82-2.06,3.09,3.09,0,0,1,2.09-.71,3.21,3.21,0,0,1,2.12.71,2.54,2.54,0,0,1,.84,2.06V38.18a2.63,2.63,0,0,1-.84,2.09,3.17,3.17,0,0,1-2.12.73A3.06,3.06,0,0,1,589.52,40.27Z"/><path class="cls-3" d="M604.93,39.63a10,10,0,0,1-4.11-4.18,13.29,13.29,0,0,1-1.46-6.35,13.16,13.16,0,0,1,1.46-6.32,10.17,10.17,0,0,1,4.11-4.16,13.89,13.89,0,0,1,12.36,0,10,10,0,0,1,4.09,4.16,13.27,13.27,0,0,1,1.44,6.32,13.4,13.4,0,0,1-1.44,6.35,9.88,9.88,0,0,1-4.09,4.18,13.81,13.81,0,0,1-12.36,0Zm10.51-5a8.75,8.75,0,0,0,1.5-5.55,8.77,8.77,0,0,0-1.5-5.52,5.9,5.9,0,0,0-8.67,0,8.64,8.64,0,0,0-1.53,5.52,8.75,8.75,0,0,0,1.5,5.55,6,6,0,0,0,8.7,0Z"/><path class="cls-3" d="M647.16,19.52c1.35,1.56,2,3.93,2,7.09V38.18a2.72,2.72,0,0,1-.77,2.06,2.92,2.92,0,0,1-2.14.76,3,3,0,0,1-2.16-.76,2.7,2.7,0,0,1-.8-2.06V26.94a6.13,6.13,0,0,0-1-3.9,3.89,3.89,0,0,0-3.17-1.22,5.35,5.35,0,0,0-4.07,1.6,5.92,5.92,0,0,0-1.53,4.28V38.18a2.67,2.67,0,0,1-.8,2.06,3,3,0,0,1-2.16.76,2.92,2.92,0,0,1-2.14-.76,2.76,2.76,0,0,1-.77-2.06V20a2.56,2.56,0,0,1,.8-2,3,3,0,0,1,2.16-.75,2.8,2.8,0,0,1,2,.73,2.52,2.52,0,0,1,.77,1.9v1.27a8.07,8.07,0,0,1,3.15-3,9.5,9.5,0,0,1,4.47-1C643.76,17.17,645.82,18,647.16,19.52Z"/><path class="cls-3" d="M677,40.13a3,3,0,0,1-.82-2.19V12.56h-8.55c-1.88,0-2.83-.83-2.83-2.49s.95-2.49,2.83-2.49h23.17q2.82,0,2.82,2.49t-2.82,2.49h-8.56V37.94a3,3,0,0,1-.82,2.19,3,3,0,0,1-2.19.82A3,3,0,0,1,677,40.13Z"/><path class="cls-3" d="M712.52,35a2.51,2.51,0,0,1,.49,1.64,2.86,2.86,0,0,1-1.74,2.45,15.8,15.8,0,0,1-3.62,1.43,14.93,14.93,0,0,1-3.85.54q-5.55,0-8.79-3.2t-3.24-8.74a13.42,13.42,0,0,1,1.41-6.25,10.2,10.2,0,0,1,4-4.23,11.27,11.27,0,0,1,5.8-1.5,10.43,10.43,0,0,1,5.41,1.36,9.3,9.3,0,0,1,3.57,3.85,12.75,12.75,0,0,1,1.27,5.88c0,1.35-.6,2-1.79,2H697.55a7.43,7.43,0,0,0,1.83,4.77,6.16,6.16,0,0,0,4.51,1.53,8.62,8.62,0,0,0,2.66-.38,26.22,26.22,0,0,0,2.61-1,5.22,5.22,0,0,1,2.06-.75A1.58,1.58,0,0,1,712.52,35ZM699.26,22.81a7.13,7.13,0,0,0-1.71,4.32h10.62a6.69,6.69,0,0,0-1.41-4.35,4.68,4.68,0,0,0-3.67-1.48A5,5,0,0,0,699.26,22.81Z"/><path class="cls-3" d="M722.15,39.63a9.94,9.94,0,0,1-4-4.13,13.24,13.24,0,0,1-1.41-6.25,13.26,13.26,0,0,1,1.48-6.33,10.51,10.51,0,0,1,4.16-4.25,12.41,12.41,0,0,1,6.16-1.5,13.91,13.91,0,0,1,3.69.51,12.51,12.51,0,0,1,3.27,1.41,2.91,2.91,0,0,1,1.5,2.49,2.63,2.63,0,0,1-.49,1.67,1.55,1.55,0,0,1-1.3.64,2.79,2.79,0,0,1-1.08-.24,9.1,9.1,0,0,1-1.13-.56,11.81,11.81,0,0,0-2-1,6,6,0,0,0-2.16-.36,5.5,5.5,0,0,0-4.49,1.91,8.37,8.37,0,0,0-1.57,5.47,8.31,8.31,0,0,0,1.57,5.43,5.5,5.5,0,0,0,4.49,1.9,5.69,5.69,0,0,0,2.09-.35,16.35,16.35,0,0,0,2-1,9.25,9.25,0,0,1,1.23-.64,2.71,2.71,0,0,1,1-.21,1.57,1.57,0,0,1,1.27.66,2.62,2.62,0,0,1,.52,1.65,2.58,2.58,0,0,1-.36,1.38,3.14,3.14,0,0,1-1.15,1.06,12.26,12.26,0,0,1-3.38,1.48,14.59,14.59,0,0,1-3.95.54A12.19,12.19,0,0,1,722.15,39.63Z"/><path class="cls-3" d="M762.45,26.61V38.18a2.76,2.76,0,0,1-.77,2.06,2.92,2.92,0,0,1-2.14.76,3,3,0,0,1-2.16-.76,2.67,2.67,0,0,1-.8-2.06V26.61a5.46,5.46,0,0,0-1-3.64,4,4,0,0,0-3.17-1.15,5.35,5.35,0,0,0-4.07,1.6,5.92,5.92,0,0,0-1.53,4.28V38.18a2.67,2.67,0,0,1-.8,2.06,3,3,0,0,1-2.16.76,2.92,2.92,0,0,1-2.14-.76,2.76,2.76,0,0,1-.77-2.06V10.07a2.54,2.54,0,0,1,.82-2,3,3,0,0,1,2.14-.76,3.08,3.08,0,0,1,2.11.71,2.41,2.41,0,0,1,.8,1.93v11a7.69,7.69,0,0,1,3.13-2.8,9.92,9.92,0,0,1,4.44-1Q762.46,17.17,762.45,26.61Z"/><path class="cls-3" d="M787.93,19.52c1.34,1.56,2,3.93,2,7.09V38.18a2.73,2.73,0,0,1-.78,2.06A2.9,2.9,0,0,1,787,41a3,3,0,0,1-2.16-.76,2.7,2.7,0,0,1-.8-2.06V26.94a6.07,6.07,0,0,0-1-3.9,3.89,3.89,0,0,0-3.17-1.22,5.36,5.36,0,0,0-4.07,1.6,6,6,0,0,0-1.52,4.28V38.18a2.7,2.7,0,0,1-.8,2.06,3,3,0,0,1-2.16.76,2.9,2.9,0,0,1-2.14-.76,2.73,2.73,0,0,1-.78-2.06V20a2.6,2.6,0,0,1,.8-2,3,3,0,0,1,2.16-.75,2.78,2.78,0,0,1,2,.73,2.49,2.49,0,0,1,.78,1.9v1.27a7.94,7.94,0,0,1,3.15-3,9.43,9.43,0,0,1,4.46-1Q785.91,17.17,787.93,19.52Z"/><path class="cls-3" d="M800.22,39.63a10.12,10.12,0,0,1-4.12-4.18,13.28,13.28,0,0,1-1.45-6.35,13.16,13.16,0,0,1,1.45-6.32,10.25,10.25,0,0,1,4.12-4.16,13.89,13.89,0,0,1,12.36,0,10.06,10.06,0,0,1,4.09,4.16,13.39,13.39,0,0,1,1.43,6.32,13.51,13.51,0,0,1-1.43,6.35,9.94,9.94,0,0,1-4.09,4.18,13.81,13.81,0,0,1-12.36,0Zm10.5-5a8.74,8.74,0,0,0,1.51-5.55,8.77,8.77,0,0,0-1.51-5.52,5.17,5.17,0,0,0-4.32-1.9,5.25,5.25,0,0,0-4.35,1.9,8.64,8.64,0,0,0-1.53,5.52A8.68,8.68,0,0,0,802,34.65a5.21,5.21,0,0,0,4.32,1.88A5.27,5.27,0,0,0,810.72,34.65Z"/><path class="cls-3" d="M823.76,40.27a2.69,2.69,0,0,1-.82-2.09V10.12a2.6,2.6,0,0,1,.82-2.07,3.12,3.12,0,0,1,2.1-.71,3.19,3.19,0,0,1,2.11.71,2.53,2.53,0,0,1,.85,2.07V38.18a2.61,2.61,0,0,1-.85,2.09,3.15,3.15,0,0,1-2.11.73A3.08,3.08,0,0,1,823.76,40.27Z"/><path class="cls-3" d="M839.18,39.63a10,10,0,0,1-4.11-4.18,13.29,13.29,0,0,1-1.46-6.35,13.16,13.16,0,0,1,1.46-6.32,10.17,10.17,0,0,1,4.11-4.16,13.89,13.89,0,0,1,12.36,0,10.06,10.06,0,0,1,4.09,4.16,13.39,13.39,0,0,1,1.43,6.32,13.51,13.51,0,0,1-1.43,6.35,9.94,9.94,0,0,1-4.09,4.18,13.81,13.81,0,0,1-12.36,0Zm10.5-5a8.68,8.68,0,0,0,1.51-5.55,8.7,8.7,0,0,0-1.51-5.52,5.17,5.17,0,0,0-4.32-1.9,5.25,5.25,0,0,0-4.35,1.9,8.64,8.64,0,0,0-1.52,5.52,8.75,8.75,0,0,0,1.5,5.55,5.21,5.21,0,0,0,4.32,1.88A5.27,5.27,0,0,0,849.68,34.65Z"/><path class="cls-3" d="M883.48,18a2.66,2.66,0,0,1,.8,2V38.6c0,3.6-1,6.33-3,8.18s-5,2.77-8.88,2.77a17.23,17.23,0,0,1-8.56-1.93,3,3,0,0,1-1.74-2.49,2.51,2.51,0,0,1,.5-1.64,1.57,1.57,0,0,1,1.29-.61,3.29,3.29,0,0,1,1,.21c.41.14.83.3,1.27.49a27.12,27.12,0,0,0,3,1.08,11.49,11.49,0,0,0,3.08.38q6.16,0,6.16-6V36a7.17,7.17,0,0,1-3,3,9.44,9.44,0,0,1-4.51,1.06,10,10,0,0,1-5.34-1.44,9.8,9.8,0,0,1-3.64-4,12.93,12.93,0,0,1-1.31-6,13.36,13.36,0,0,1,1.29-6,9.59,9.59,0,0,1,3.64-4,10,10,0,0,1,5.36-1.43,9.44,9.44,0,0,1,4.51,1,7.17,7.17,0,0,1,3,3V20a2.56,2.56,0,0,1,.8-2,3.36,3.36,0,0,1,4.23,0Zm-6.61,15.65a7.45,7.45,0,0,0,1.58-5,7.53,7.53,0,0,0-1.58-5.07,6.16,6.16,0,0,0-8.76,0,7.43,7.43,0,0,0-1.6,5.07,7.35,7.35,0,0,0,1.6,5,6.13,6.13,0,0,0,8.76,0Z"/><path class="cls-3" d="M907.38,17.71a2.5,2.5,0,0,1,1.38-.4,2.94,2.94,0,0,1,2,.73,2.26,2.26,0,0,1,.87,1.81,2.41,2.41,0,0,1-.28,1.08L898.47,47.81a2.61,2.61,0,0,1-2.49,1.6,2.89,2.89,0,0,1-1.9-.68,2.15,2.15,0,0,1-.83-1.72,3,3,0,0,1,.29-1.17l3.19-6.72L888,20.93a2.38,2.38,0,0,1-.24-1.08,2.31,2.31,0,0,1,.92-1.84,3.21,3.21,0,0,1,2.09-.75,2.74,2.74,0,0,1,1.46.4,2.65,2.65,0,0,1,1,1.25l6.58,14.52L906.37,19A2.65,2.65,0,0,1,907.38,17.71Z"/><path class="cls-3" d="M929.35,48.61a2.68,2.68,0,0,1-.8-2V10.12a2.67,2.67,0,0,1,.8-2,2.71,2.71,0,0,1,2-.78,2.59,2.59,0,0,1,1.95.8,2.73,2.73,0,0,1,.78,2V46.64a2.67,2.67,0,0,1-.78,2,2.61,2.61,0,0,1-1.95.78A2.68,2.68,0,0,1,929.35,48.61Z"/><path class="cls-3" d="M980.81,38.18a2.6,2.6,0,0,1-.82,1.9,2.66,2.66,0,0,1-2,.82,3,3,0,0,1-2.16-1L960.23,25.25V37.94a3,3,0,0,1-.83,2.21,3,3,0,0,1-2.23.85,2.9,2.9,0,0,1-2.18-.85,3,3,0,0,1-.83-2.21V10.35a2.85,2.85,0,0,1,3-3,3,3,0,0,1,2.23.83,2.92,2.92,0,0,1,.83,2.18V22.43L975.36,8.24a2.68,2.68,0,1,1,3.71,3.85L966.43,23.65l13.44,12.51A2.69,2.69,0,0,1,980.81,38.18Z"/><path class="cls-3" d="M1016.72,8.17a3,3,0,0,1,.8,2.18V38.18a2.79,2.79,0,0,1-.75,2.06,2.64,2.64,0,0,1-2,.76,2.48,2.48,0,0,1-1.92-.76,2.9,2.9,0,0,1-.71-2.06V18.81l-8,15.14a4.66,4.66,0,0,1-1.22,1.52,2.52,2.52,0,0,1-1.55.5,2.61,2.61,0,0,1-1.55-.47A4.3,4.3,0,0,1,998.63,34l-8-14.9V38.18a2.85,2.85,0,0,1-.73,2,2.55,2.55,0,0,1-2,.78,2.49,2.49,0,0,1-1.93-.76,2.89,2.89,0,0,1-.7-2.06V10.35a3.05,3.05,0,0,1,.77-2.18,2.75,2.75,0,0,1,2.09-.83,3.17,3.17,0,0,1,2.87,2l10.44,19.88,10.38-19.88a3.12,3.12,0,0,1,2.78-2A2.81,2.81,0,0,1,1016.72,8.17Z"/><path class="cls-3" d="M1025.53,40.15a3,3,0,0,1-.82-2.21V10.35a2.92,2.92,0,0,1,.82-2.18,3,3,0,0,1,2.19-.83,3,3,0,0,1,2.23.83,2.92,2.92,0,0,1,.82,2.18V37.94a3,3,0,0,1-.82,2.21,3,3,0,0,1-2.23.85A2.94,2.94,0,0,1,1025.53,40.15Z"/><path class="cls-3" d="M1046.54,40.13a3,3,0,0,1-.82-2.19V12.56h-8.56q-2.82,0-2.82-2.49t2.82-2.49h23.17q2.82,0,2.82,2.49t-2.82,2.49h-8.55V37.94a3,3,0,0,1-.82,2.19,3,3,0,0,1-2.19.82A3,3,0,0,1,1046.54,40.13Z"/><path class="cls-3" d="M1067.48,40a2.8,2.8,0,0,1-.75-2.07V10.35a2.92,2.92,0,0,1,.82-2.18,3,3,0,0,1,2.18-.83,3,3,0,0,1,2.24.83,3,3,0,0,1,.82,2.18V35.73H1086q2.82,0,2.82,2.49T1086,40.71h-16.41A2.85,2.85,0,0,1,1067.48,40Z"/><rect class="cls-3" x="165" y="59" width="932" height="64"/><path class="cls-4" d="M184.94,95.11A5.88,5.88,0,0,1,186.18,94a6.65,6.65,0,0,1,1.35-.78,3.86,3.86,0,0,1,1.66-.35v2.84a5.07,5.07,0,0,0-1.8.3,8,8,0,0,0-1.33.6,8.46,8.46,0,0,0-1.16.9v5.18H182V90.82a4.73,4.73,0,0,1,.61-2.38,5.59,5.59,0,0,1,1.64-1.79,8,8,0,0,1,2.34-1.14,9.39,9.39,0,0,1,2.71-.38,9.27,9.27,0,0,1,2.67.38,8.44,8.44,0,0,1,2.34,1.12A5.67,5.67,0,0,1,196,88.42a4.77,4.77,0,0,1,.62,2.4v11.89h-2.89V90.82a2.62,2.62,0,0,0-.35-1.35,3.16,3.16,0,0,0-1-1A4.33,4.33,0,0,0,191,87.8a6.37,6.37,0,0,0-3.32,0,4.81,4.81,0,0,0-1.4.62,2.92,2.92,0,0,0-1,1,2.79,2.79,0,0,0-.35,1.39Z"/><path class="cls-4" d="M213.88,95.86a16.11,16.11,0,0,0,.11,2,3.35,3.35,0,0,0,.47,1.37,1.92,1.92,0,0,0,1,.75,5.09,5.09,0,0,0,1.71.24,4.27,4.27,0,0,0,1.66-.31,5.21,5.21,0,0,0,1.23-.74,6.1,6.1,0,0,0,1-1.1V85.48H224v17.23h-2.89v-2.57a6.58,6.58,0,0,1-1.21,1.46,7.3,7.3,0,0,1-1.64,1,5.86,5.86,0,0,1-2.45.45,4.21,4.21,0,0,1-3.77-2,6.5,6.5,0,0,1-.82-1.95,9.61,9.61,0,0,1-.25-2.09V91.6a3.93,3.93,0,0,0-.46-2,3.51,3.51,0,0,0-1.19-1.23,5,5,0,0,0-1.59-.6,8.31,8.31,0,0,0-1.69-.18,4.76,4.76,0,0,0-1.86.33,5.83,5.83,0,0,0-1.28.72,4.08,4.08,0,0,0-1,1l2.34,2a2.32,2.32,0,0,0-.47.7,4.38,4.38,0,0,0-.33,1,6.55,6.55,0,0,0-.13,1.44v4.7a2.65,2.65,0,0,0,.05.53c0,.14.16.22.37.25h1.14v2.49h-1.56a3.51,3.51,0,0,1-2-.58,2.67,2.67,0,0,1-.86-2.34V94.69a7.23,7.23,0,0,1,.1-1.3,5.48,5.48,0,0,1,.25-1,4.16,4.16,0,0,1,.39-.82l-1.17-1-.78-.64a2.29,2.29,0,0,1-.35-.33,9.42,9.42,0,0,1,1.68-2.26,8.88,8.88,0,0,1,2.18-1.55,6.84,6.84,0,0,1,3.24-.7,12.19,12.19,0,0,1,2.71.31,8.24,8.24,0,0,1,2.53,1,5.85,5.85,0,0,1,1.9,1.77,4.52,4.52,0,0,1,.74,2.6Z"/><path class="cls-4" d="M234.59,89.42l-1,2.45h-3.16a3.75,3.75,0,0,1-2.69-.8,3.53,3.53,0,0,1-.82-2.59v-1.4h2.69v1.41a.78.78,0,0,0,.32.71,2.65,2.65,0,0,0,1.32.22Zm0,8.5-1,2.45h-3.08a4,4,0,0,1-2.73-.76,3.27,3.27,0,0,1-.86-2.55V95.62h2.69V97a.8.8,0,0,0,.32.71,2.68,2.68,0,0,0,1.32.21Z"/><path class="cls-4" d="M237.47,85.51h2.89v14a2.55,2.55,0,0,0,0,.52c0,.15.14.23.35.26h1.17v2.45h-1.84a2.72,2.72,0,0,1-1.89-.64,3,3,0,0,1-.72-2.28Z"/><path class="cls-4" d="M247.1,102.71h-2.88V85.51h2.92l0,2.58a6.59,6.59,0,0,1,1.37-1.48,8.6,8.6,0,0,1,1.75-1,6.3,6.3,0,0,1,2.54-.46,5,5,0,0,1,2.36.54,6,6,0,0,1,1.77,1.42,6.45,6.45,0,0,1,1.52,4.12v11.5h-2.88V92.38a5.4,5.4,0,0,0-.86-3.24A3.71,3.71,0,0,0,251.49,88a4.58,4.58,0,0,0-1.77.33,6.54,6.54,0,0,0-1.37.76,5.55,5.55,0,0,0-1.21,1.1Z"/><path class="cls-4" d="M264.22,95.11A6.14,6.14,0,0,1,265.46,94a7.25,7.25,0,0,1,1.35-.78,3.91,3.91,0,0,1,1.67-.35v2.84a5.07,5.07,0,0,0-1.8.3,8,8,0,0,0-1.33.6,7.89,7.89,0,0,0-1.16.9v5.18H261.3V90.82a4.73,4.73,0,0,1,.6-2.38,5.7,5.7,0,0,1,1.64-1.79,8,8,0,0,1,2.34-1.14,9.44,9.44,0,0,1,2.71-.38,9.27,9.27,0,0,1,2.67.38,8.44,8.44,0,0,1,2.34,1.12,5.56,5.56,0,0,1,1.66,1.79,4.68,4.68,0,0,1,.63,2.4v11.89H273V90.82a2.72,2.72,0,0,0-.35-1.35,3.27,3.27,0,0,0-1-1,4.48,4.48,0,0,0-1.42-.64,6.37,6.37,0,0,0-3.32,0,4.93,4.93,0,0,0-1.4.62,3.11,3.11,0,0,0-1,1,2.79,2.79,0,0,0-.35,1.39Z"/><path class="cls-4" d="M280.84,86.68a16.53,16.53,0,0,0-.12-2.12q-.12-.91-.27-1.62c-.11-.47-.2-.89-.27-1.27a5.24,5.24,0,0,1-.12-1.11,3.1,3.1,0,0,1,1.34-2.69,7.58,7.58,0,0,1,4.24-.94h4.13v2.46h-3a10.63,10.63,0,0,0-2.95.29,1.11,1.11,0,0,0-.88,1.08,4.66,4.66,0,0,0,.12,1c.08.35.17.75.27,1.21a15.35,15.35,0,0,1,.28,1.58,16.25,16.25,0,0,1,.11,2.1v12.8a3.55,3.55,0,0,0,0,.52c0,.15.15.23.35.26h1.17v2.45h-1.95a2.36,2.36,0,0,1-1.83-.72,3.16,3.16,0,0,1-.66-2.2Z"/><path class="cls-4" d="M298.9,85.55h2.88v17.16H298.9V100.1a6.9,6.9,0,0,1-3.18,2.51,6.62,6.62,0,0,1-2.56.45,4.92,4.92,0,0,1-2.36-.55,5.79,5.79,0,0,1-1.75-1.42,6.09,6.09,0,0,1-1.09-2,6.62,6.62,0,0,1-.37-2.15V85.55h2.88V95.93a4.36,4.36,0,0,0,1,3.31,4.11,4.11,0,0,0,2.89,1,4.81,4.81,0,0,0,1.83-.33,6.65,6.65,0,0,0,1.41-.76A6.57,6.57,0,0,0,298.9,98Z"/><path class="cls-4" d="M306.73,86.68a16.68,16.68,0,0,0-.11-2.12c-.08-.61-.17-1.15-.28-1.62l-.27-1.27a5.24,5.24,0,0,1-.12-1.11,3.08,3.08,0,0,1,1.35-2.69,7.57,7.57,0,0,1,4.23-.94h4.14v2.46h-3a10.5,10.5,0,0,0-2.94.29,1.1,1.1,0,0,0-.88,1.08,4.66,4.66,0,0,0,.12,1c.08.35.17.75.27,1.21a15.56,15.56,0,0,1,.27,1.58,16.1,16.1,0,0,1,.12,2.1v12.8a2.55,2.55,0,0,0,0,.52c0,.15.14.23.35.26h1.17v2.45h-1.95a2.36,2.36,0,0,1-1.83-.72,3.11,3.11,0,0,1-.67-2.2Z"/><path class="cls-4" d="M323.43,102.7v-8a3.51,3.51,0,0,1-.71.32,8.08,8.08,0,0,1-1.15.21,13.75,13.75,0,0,1-1.89.1,6,6,0,0,0-1.27.16,4.07,4.07,0,0,0-1.26.51,3.22,3.22,0,0,0-1,.89,2.25,2.25,0,0,0-.39,1.33,2.07,2.07,0,0,0,.84,1.83,3.43,3.43,0,0,0,2,.59,4,4,0,0,0,.8-.08l.68-.16.59-.23v2.49a6,6,0,0,1-.55.24,5.25,5.25,0,0,1-1.6.19,6.36,6.36,0,0,1-4.15-1.23,4.46,4.46,0,0,1-1.5-3.66,4.62,4.62,0,0,1,.62-2.47,5.4,5.4,0,0,1,1.6-1.66,6.52,6.52,0,0,1,2.18-.92,10.93,10.93,0,0,1,2.38-.27,17.84,17.84,0,0,0,2.07-.1,10.26,10.26,0,0,0,1.13-.21,1.08,1.08,0,0,0,.55-.35v-.89a4,4,0,0,0-.9-2.65,3.53,3.53,0,0,0-2.85-1.07,5,5,0,0,0-2.34.53,7.3,7.3,0,0,0-1.67,1.15A7.76,7.76,0,0,0,314.26,91l-1-2.41a5.86,5.86,0,0,1,1.44-1.71,8.19,8.19,0,0,1,2-1.17,7.76,7.76,0,0,1,3-.52c2.32,0,4,.61,5.05,1.81a7.34,7.34,0,0,1,1.58,5V102.7Z"/><path class="cls-4" d="M328.61,97.64a3.93,3.93,0,0,1,.63-2.28,5.44,5.44,0,0,1,1.4-1.46,6.53,6.53,0,0,1,2.07-.94,5.91,5.91,0,0,1-1.87-.66,4.74,4.74,0,0,1-1.27-1.15,3,3,0,0,1-.57-1.89,4.13,4.13,0,0,1,.39-1.87,3.92,3.92,0,0,1,1-1.29,3.76,3.76,0,0,1,1.32-.74,4.4,4.4,0,0,1,1.39-.23,10.33,10.33,0,0,1,1.34.07c.38,0,.7.11,1,.16l.78.23v2.54l-.74-.28-.8-.17a5.05,5.05,0,0,0-1-.1,1.79,1.79,0,0,0-1.22.47,1.52,1.52,0,0,0-.53,1.21,2,2,0,0,0,1.21,1.85,6.89,6.89,0,0,0,3.08.61v2.45a5.86,5.86,0,0,0-2.13.35,4.8,4.8,0,0,0-1.44.87,3.5,3.5,0,0,0-.84,1.13,2.72,2.72,0,0,0-.27,1.1,2.76,2.76,0,0,0,.88,2.21,4.48,4.48,0,0,0,3,.78,4.91,4.91,0,0,0,1.89-.33,3.88,3.88,0,0,0,1.31-.86,3.3,3.3,0,0,0,.74-1.19,3.84,3.84,0,0,0,.23-1.33V85.48h2.89V96.75a7,7,0,0,1-.37,2.24,5.62,5.62,0,0,1-1.21,2,6.36,6.36,0,0,1-2.18,1.48,8.49,8.49,0,0,1-3.3.57,10.48,10.48,0,0,1-3.2-.42,5.82,5.82,0,0,1-2.08-1.15,4.09,4.09,0,0,1-1.14-1.72A6.69,6.69,0,0,1,328.61,97.64Z"/><path class="cls-4" d="M330,82.59l1-2.46h7.68v-2.3h2.89v4.76Z"/><path class="cls-4" d="M355.29,102.71v-8a3.36,3.36,0,0,1-.82.35,8.27,8.27,0,0,1-1.19.21,14.7,14.7,0,0,1-1.93.1,4.67,4.67,0,0,0-1.21.18,4.46,4.46,0,0,0-1.23.52A3.26,3.26,0,0,0,348,97a2.14,2.14,0,0,0-.37,1.27,2.06,2.06,0,0,0,.85,1.83,3.54,3.54,0,0,0,2,.59,4,4,0,0,0,.8-.08l.68-.16a4.58,4.58,0,0,0,.59-.27v2.53l-.59.24a5.21,5.21,0,0,1-1.48.19,6.67,6.67,0,0,1-4.21-1.21,4.33,4.33,0,0,1-1.56-3.66,4.77,4.77,0,0,1,.6-2.46,5.45,5.45,0,0,1,1.54-1.66A6.36,6.36,0,0,1,349,93.2a10.63,10.63,0,0,1,2.36-.28,18.91,18.91,0,0,0,2.09-.09,10,10,0,0,0,1.19-.22,1.66,1.66,0,0,0,.66-.35v-.89a4,4,0,0,0-.92-2.68,3.57,3.57,0,0,0-2.86-1.07,5,5,0,0,0-2.34.53,7.16,7.16,0,0,0-1.68,1.15A7.76,7.76,0,0,0,346.08,91l-1-2.44a6.24,6.24,0,0,1,1.44-1.66,8.11,8.11,0,0,1,2-1.18,7.48,7.48,0,0,1,3-.53,8.42,8.42,0,0,1,2.1.24,3.85,3.85,0,0,0,1.25-.87,1.9,1.9,0,0,0,.47-1.32h2.92a2.91,2.91,0,0,1-.65,2A4.68,4.68,0,0,1,356,86.41q2.25,1.68,2.25,5.58l0,10.72Z"/><path class="cls-4" d="M360.51,86.84a5.72,5.72,0,0,1,1.17-.86,9.59,9.59,0,0,1,1.43-.58,6.16,6.16,0,0,1,1.89-.27,8.39,8.39,0,0,1,2.5.38,6.85,6.85,0,0,1,2.24,1.21,6.61,6.61,0,0,1,1.62,2A6.23,6.23,0,0,1,372,91.6v11.11h-2.89V92a4.91,4.91,0,0,0-.37-2,3.55,3.55,0,0,0-1-1.36,4.05,4.05,0,0,0-1.4-.79,5.45,5.45,0,0,0-1.6-.25,5.1,5.1,0,0,0-1.68.27,8.9,8.9,0,0,0-1.33.59,6.67,6.67,0,0,0-1.21.86Z"/><path class="cls-4" d="M385.55,89.22a7.29,7.29,0,0,0-1.21-.82,8.37,8.37,0,0,0-1.54-.57,8.55,8.55,0,0,0-2.16-.25,3.81,3.81,0,0,0-2,.53,1.9,1.9,0,0,0-.21,3A5.9,5.9,0,0,0,380,92c.62.23,1.31.45,2.06.66a8,8,0,0,1,2.07.88,5.08,5.08,0,0,1,1.58,1.52,4.58,4.58,0,0,1,.64,2.59,8.38,8.38,0,0,1-.23,1.91,4,4,0,0,1-.92,1.76,4.94,4.94,0,0,1-1.87,1.27,8.41,8.41,0,0,1-3.1.48,10.6,10.6,0,0,1-2.22-.21,9.23,9.23,0,0,1-1.68-.54,8.09,8.09,0,0,1-1.44-.79V99.13a11.19,11.19,0,0,0,1.56.74,8.69,8.69,0,0,0,1.63.52,8.39,8.39,0,0,0,1.95.22,3.52,3.52,0,0,0,2.66-.84,3,3,0,0,0,.78-2.16,1.84,1.84,0,0,0-.65-1.55,5.36,5.36,0,0,0-1.58-.84,20.51,20.51,0,0,0-2.06-.6,7.59,7.59,0,0,1-2.07-.82,4.8,4.8,0,0,1-1.58-1.5,4.69,4.69,0,0,1-.64-2.66,3.73,3.73,0,0,1,.46-1.85,4.53,4.53,0,0,1,1.27-1.42,6.26,6.26,0,0,1,1.85-.91,7.31,7.31,0,0,1,2.19-.33,8.44,8.44,0,0,1,2.12.23,7,7,0,0,1,1.54.55,7.18,7.18,0,0,1,1.25.77Z"/><path class="cls-4" d="M399.2,102.71v-8a3.36,3.36,0,0,1-.82.35,8,8,0,0,1-1.19.21,14.6,14.6,0,0,1-1.93.1,4.73,4.73,0,0,0-1.21.18,4.28,4.28,0,0,0-1.22.52,3.3,3.3,0,0,0-.94.88,2.14,2.14,0,0,0-.37,1.27,2.06,2.06,0,0,0,.86,1.83,3.52,3.52,0,0,0,2,.59,4.09,4.09,0,0,0,.8-.08l.68-.16a4.43,4.43,0,0,0,.58-.27v2.53l-.58.24a5.31,5.31,0,0,1-1.48.19,6.7,6.7,0,0,1-4.22-1.21,4.33,4.33,0,0,1-1.56-3.66,4.68,4.68,0,0,1,.61-2.46,5.21,5.21,0,0,1,1.54-1.66,6.22,6.22,0,0,1,2.12-.91,10.7,10.7,0,0,1,2.36-.28,18.79,18.79,0,0,0,2.09-.09,9.63,9.63,0,0,0,1.19-.22,1.66,1.66,0,0,0,.66-.35v-.89a4,4,0,0,0-.91-2.68,3.6,3.6,0,0,0-2.87-1.07,5,5,0,0,0-2.34.53,7.16,7.16,0,0,0-1.68,1.15A8,8,0,0,0,390,91l-1-2.44a6.47,6.47,0,0,1,1.45-1.66,7.93,7.93,0,0,1,2-1.18,7.39,7.39,0,0,1,3-.53,8.56,8.56,0,0,1,2.11.24,3.8,3.8,0,0,0,1.24-.87,1.86,1.86,0,0,0,.47-1.32h2.93a2.91,2.91,0,0,1-.66,2,4.68,4.68,0,0,1-1.64,1.25q2.26,1.68,2.26,5.58l0,10.72Z"/><path class="cls-4" d="M416.32,85.55h2.89v17.16h-2.89V100.1a7.61,7.61,0,0,1-1.4,1.5,7.7,7.7,0,0,1-1.77,1,6.62,6.62,0,0,1-2.56.45,4.92,4.92,0,0,1-2.36-.55,5.79,5.79,0,0,1-1.75-1.42,6.11,6.11,0,0,1-1.1-2A6.89,6.89,0,0,1,405,97V85.55h2.89V95.93A4.36,4.36,0,0,0,409,99.24a4.1,4.1,0,0,0,2.89,1,4.85,4.85,0,0,0,1.83-.33,6.65,6.65,0,0,0,1.41-.76,6.51,6.51,0,0,0,1.24-1.1Z"/><path class="cls-4" d="M422.09,85.51H425v14a2.55,2.55,0,0,0,0,.52c0,.15.14.23.35.26h1.17v2.45h-1.83a2.72,2.72,0,0,1-1.89-.64,2.93,2.93,0,0,1-.73-2.28Z"/><path class="cls-4" d="M431.73,102.71h-2.89V85.51h2.93l0,2.58a6.54,6.54,0,0,1,1.36-1.48,8.69,8.69,0,0,1,1.76-1,6.22,6.22,0,0,1,2.53-.46,5,5,0,0,1,2.36.54,6.17,6.17,0,0,1,1.78,1.42,6.58,6.58,0,0,1,1.13,2,6.34,6.34,0,0,1,.39,2.17v11.5h-2.89V92.38a5.4,5.4,0,0,0-.85-3.24c-.57-.78-1.63-1.17-3.19-1.17a4.56,4.56,0,0,0-1.76.33,6.9,6.9,0,0,0-1.38.76,5.28,5.28,0,0,0-1.2,1.1Z"/><path class="cls-4" d="M448.81,95a6.68,6.68,0,0,1,1.24-1,6.18,6.18,0,0,1,1.35-.76,4.26,4.26,0,0,1,1.7-.33v2.84a5.07,5.07,0,0,0-1.8.3,8,8,0,0,0-1.33.6,7.89,7.89,0,0,0-1.16.9v5.18h-2.89V90.82a4.62,4.62,0,0,1,.63-2.42,5.83,5.83,0,0,1,1.64-1.79,6.92,6.92,0,0,1,2.3-1.11,9.2,9.2,0,0,1,2.61-.37,12.16,12.16,0,0,1,1.34.07,6.06,6.06,0,0,1,1.27.28,4.4,4.4,0,0,0,1.35-.84,1.88,1.88,0,0,0,.56-1.43h2.89a3.47,3.47,0,0,1-.68,2.17,4.49,4.49,0,0,1-1.58,1.3,5,5,0,0,1,2.26,4.14v11.89h-2.89V90.82a2.6,2.6,0,0,0-.37-1.39,3,3,0,0,0-1-1,5,5,0,0,0-1.45-.62,6.22,6.22,0,0,0-1.67-.22,5.62,5.62,0,0,0-1.67.24,4.62,4.62,0,0,0-1.36.64,3.09,3.09,0,0,0-.93,1,2.72,2.72,0,0,0-.35,1.35Z"/><path class="cls-4" d="M485.94,102.71v-8a3.36,3.36,0,0,1-.82.35,8.27,8.27,0,0,1-1.19.21,14.7,14.7,0,0,1-1.93.1,4.61,4.61,0,0,0-1.21.18,4.46,4.46,0,0,0-1.23.52,3.3,3.3,0,0,0-.94.88,2.21,2.21,0,0,0-.37,1.27,2.06,2.06,0,0,0,.86,1.83,3.52,3.52,0,0,0,2,.59,4,4,0,0,0,.8-.08l.68-.16a5.3,5.3,0,0,0,.59-.27v2.53l-.59.24a5.21,5.21,0,0,1-1.48.19,6.67,6.67,0,0,1-4.21-1.21,4.33,4.33,0,0,1-1.56-3.66,4.77,4.77,0,0,1,.6-2.46,5.45,5.45,0,0,1,1.54-1.66,6.27,6.27,0,0,1,2.13-.91,10.63,10.63,0,0,1,2.36-.28,18.58,18.58,0,0,0,2.08-.09,9.28,9.28,0,0,0,1.19-.22,1.65,1.65,0,0,0,.67-.35v-.89a4,4,0,0,0-.92-2.68,3.59,3.59,0,0,0-2.87-1.07,5,5,0,0,0-2.34.53,7.3,7.3,0,0,0-1.67,1.15A7.76,7.76,0,0,0,476.73,91l-1-2.44a6.24,6.24,0,0,1,1.44-1.66,7.93,7.93,0,0,1,2-1.18,7.43,7.43,0,0,1,3-.53,8.5,8.5,0,0,1,2.11.24,3.85,3.85,0,0,0,1.25-.87,1.9,1.9,0,0,0,.47-1.32h2.92a3,3,0,0,1-.65,2,4.77,4.77,0,0,1-1.64,1.25q2.25,1.68,2.25,5.58l0,10.72Z"/><path class="cls-4" d="M495.61,99.44a2.55,2.55,0,0,0,0,.52c0,.15.14.23.34.26h1.18v2.49h-1.91a2.47,2.47,0,0,1-1.85-.68,3,3,0,0,1-.69-2.24V94.72a7.35,7.35,0,0,1,.1-1.31,6.78,6.78,0,0,1,.25-1,3.48,3.48,0,0,1,.4-.82c-.45-.36-.84-.69-1.18-1l-.78-.64a1.83,1.83,0,0,1-.35-.33,9.23,9.23,0,0,1,1.68-2.26,9.59,9.59,0,0,1,2.25-1.56,7.06,7.06,0,0,1,3.3-.7,10.88,10.88,0,0,1,2.76.35,8.36,8.36,0,0,1,2.5,1,5.92,5.92,0,0,1,1.82,1.77,4.51,4.51,0,0,1,.71,2.52v9.36a1.72,1.72,0,0,1-.3,1,6.69,6.69,0,0,1-.61.8,4.62,4.62,0,0,1-.87.74h-1.11V91.6a4,4,0,0,0-.44-1.95,3.65,3.65,0,0,0-1.15-1.25,4.27,4.27,0,0,0-1.57-.64,8.54,8.54,0,0,0-1.73-.18,4.69,4.69,0,0,0-1.88.33,7.82,7.82,0,0,0-1.3.72,3.81,3.81,0,0,0-1,1l2.38,1.95a2,2,0,0,0-.51.7,4.48,4.48,0,0,0-.33,1,6.55,6.55,0,0,0-.13,1.44Z"/><path class="cls-4" d="M508.44,86.84a5.22,5.22,0,0,1,1.17-.86A9.44,9.44,0,0,1,511,85.4a6.16,6.16,0,0,1,1.89-.27,8.29,8.29,0,0,1,2.5.38,6.85,6.85,0,0,1,2.24,1.21,6.46,6.46,0,0,1,1.62,2,6.11,6.11,0,0,1,.63,2.85v11.11H517V92a4.91,4.91,0,0,0-.37-2,3.68,3.68,0,0,0-1-1.36,4,4,0,0,0-1.4-.79,5.4,5.4,0,0,0-1.6-.25,5.1,5.1,0,0,0-1.68.27,8.31,8.31,0,0,0-1.32.59,6.34,6.34,0,0,0-1.21.86Z"/><path class="cls-4" d="M528.25,103.06a5,5,0,0,1-2.44-.57A5.33,5.33,0,0,1,524.1,101a6.06,6.06,0,0,1-1-2,8.18,8.18,0,0,1-.31-2.24V85.48h2.89V96.9a5.45,5.45,0,0,0,.17,1.33,3.54,3.54,0,0,0,.57,1.19,3.25,3.25,0,0,0,1,.86,2.65,2.65,0,0,0,1.35.33h1.64a3.17,3.17,0,0,0,1.46-.33,3.08,3.08,0,0,0,1-.86,3.88,3.88,0,0,0,.63-1.19,4.35,4.35,0,0,0,.21-1.33V85.48h2.89V96.75a7.53,7.53,0,0,1-.35,2.24,6.62,6.62,0,0,1-1.06,2,5.48,5.48,0,0,1-1.75,1.48,5.08,5.08,0,0,1-2.46.57Z"/><path class="cls-4" d="M539.6,80.21l-1,2.38H531.8a4.26,4.26,0,0,1-2.59-.7,3.1,3.1,0,0,1-1-2.65V77.87H531v1.4a.85.85,0,0,0,.31.73,2.73,2.73,0,0,0,1.33.21Z"/><path class="cls-4" d="M550.79,85.55h2.89v17.16h-2.89V100.1a6.77,6.77,0,0,1-3.18,2.51,6.53,6.53,0,0,1-2.55.45,4.92,4.92,0,0,1-2.36-.55,5.79,5.79,0,0,1-1.75-1.42,6.11,6.11,0,0,1-1.1-2,6.89,6.89,0,0,1-.37-2.15V85.55h2.89V95.93a4.36,4.36,0,0,0,1,3.31,4.1,4.1,0,0,0,2.89,1,4.85,4.85,0,0,0,1.83-.33A7.28,7.28,0,0,0,550.79,98Z"/><path class="cls-4" d="M556.56,85.51h2.89v14a2.55,2.55,0,0,0,0,.52c0,.15.14.23.35.26H561v2.45h-1.83a2.72,2.72,0,0,1-1.89-.64,2.93,2.93,0,0,1-.73-2.28Z"/><path class="cls-4" d="M566.2,102.71h-2.89V85.51h2.93l0,2.58a6.54,6.54,0,0,1,1.36-1.48,8.69,8.69,0,0,1,1.76-1,6.22,6.22,0,0,1,2.53-.46,5,5,0,0,1,2.36.54A6.17,6.17,0,0,1,576,87.09a6.58,6.58,0,0,1,1.13,2,6.34,6.34,0,0,1,.39,2.17v11.5h-2.89V92.38a5.4,5.4,0,0,0-.85-3.24c-.57-.78-1.63-1.17-3.19-1.17a4.56,4.56,0,0,0-1.76.33,6.9,6.9,0,0,0-1.38.76,5.28,5.28,0,0,0-1.2,1.1Z"/><path class="cls-4" d="M583.32,95.11A6.08,6.08,0,0,1,584.55,94a7,7,0,0,1,1.36-.78,3.86,3.86,0,0,1,1.66-.35v2.84a5.07,5.07,0,0,0-1.8.3,8,8,0,0,0-1.33.6,7.89,7.89,0,0,0-1.16.9v5.18h-2.89V90.82a4.63,4.63,0,0,1,.61-2.38,5.59,5.59,0,0,1,1.64-1.79A7.72,7.72,0,0,1,585,85.51a9.39,9.39,0,0,1,2.71-.38,9.27,9.27,0,0,1,2.67.38,8.44,8.44,0,0,1,2.34,1.12,5.53,5.53,0,0,1,1.65,1.79,4.68,4.68,0,0,1,.63,2.4v11.89h-2.89V90.82a2.62,2.62,0,0,0-.35-1.35,3.16,3.16,0,0,0-1-1,4.33,4.33,0,0,0-1.41-.64,6.13,6.13,0,0,0-1.65-.22,5.92,5.92,0,0,0-1.67.22,4.81,4.81,0,0,0-1.4.62,2.92,2.92,0,0,0-1,1,2.69,2.69,0,0,0-.35,1.39Z"/><path class="cls-4" d="M599.93,86.68a16.53,16.53,0,0,0-.12-2.12,14.35,14.35,0,0,0-.27-1.62l-.27-1.27a5.24,5.24,0,0,1-.12-1.11,3.08,3.08,0,0,1,1.35-2.69,7.52,7.52,0,0,1,4.23-.94h4.13v2.46h-3a10.5,10.5,0,0,0-2.94.29,1.1,1.1,0,0,0-.88,1.08,5.31,5.31,0,0,0,.11,1c.08.35.17.75.28,1.21s.19,1,.27,1.58a16.1,16.1,0,0,1,.12,2.1v12.8a2.55,2.55,0,0,0,0,.52c0,.15.14.23.35.26h1.17v2.45h-2a2.4,2.4,0,0,1-1.84-.72,3.16,3.16,0,0,1-.66-2.2Z"/><path class="cls-4" d="M618,85.55h2.88v17.16H618V100.1a7.67,7.67,0,0,1-1.41,1.5,7.5,7.5,0,0,1-1.77,1,6.6,6.6,0,0,1-2.55.45,4.87,4.87,0,0,1-2.36-.55,5.83,5.83,0,0,1-1.76-1.42,6.28,6.28,0,0,1-1.09-2,6.62,6.62,0,0,1-.37-2.15V85.55h2.88V95.93a4.36,4.36,0,0,0,1.06,3.31,4.07,4.07,0,0,0,2.88,1,4.9,4.9,0,0,0,1.84-.33,6.81,6.81,0,0,0,1.4-.76A6.57,6.57,0,0,0,618,98Z"/><path class="cls-4" d="M625.83,86.68a16.53,16.53,0,0,0-.12-2.12q-.12-.91-.27-1.62c-.11-.47-.2-.89-.28-1.27a6,6,0,0,1-.11-1.11,3.1,3.1,0,0,1,1.34-2.69,7.57,7.57,0,0,1,4.23-.94h4.14v2.46h-3a10.6,10.6,0,0,0-2.94.29,1.11,1.11,0,0,0-.88,1.08,4.66,4.66,0,0,0,.12,1c.08.35.17.75.27,1.21a15.35,15.35,0,0,1,.28,1.58,18.27,18.27,0,0,1,.11,2.1v12.8a3.55,3.55,0,0,0,0,.52c0,.15.14.23.35.26h1.17v2.45h-1.95a2.36,2.36,0,0,1-1.83-.72,3.16,3.16,0,0,1-.66-2.2Z"/><path class="cls-4" d="M642.52,102.7v-8a3.65,3.65,0,0,1-.7.32,8.36,8.36,0,0,1-1.15.21,13.91,13.91,0,0,1-1.9.1,5.87,5.87,0,0,0-1.26.16,4,4,0,0,0-1.27.51,3.22,3.22,0,0,0-1,.89,2.24,2.24,0,0,0-.38,1.33,2.07,2.07,0,0,0,.83,1.83,3.43,3.43,0,0,0,2,.59,4,4,0,0,0,.8-.08l.68-.16.59-.23v2.49a6,6,0,0,1-.55.24,5.25,5.25,0,0,1-1.6.19,6.38,6.38,0,0,1-4.15-1.23,4.46,4.46,0,0,1-1.5-3.66,4.72,4.72,0,0,1,.62-2.47,5.4,5.4,0,0,1,1.6-1.66,6.48,6.48,0,0,1,2.19-.92,10.77,10.77,0,0,1,2.37-.27,17.71,17.71,0,0,0,2.07-.1,9.81,9.81,0,0,0,1.13-.21,1.08,1.08,0,0,0,.55-.35v-.89a4,4,0,0,0-.9-2.65,3.53,3.53,0,0,0-2.85-1.07,5,5,0,0,0-2.33.53,7.16,7.16,0,0,0-1.68,1.15A7.76,7.76,0,0,0,633.35,91l-1-2.41a5.86,5.86,0,0,1,1.44-1.71,8.19,8.19,0,0,1,2-1.17,7.76,7.76,0,0,1,3-.52c2.32,0,4,.61,5.06,1.81a7.38,7.38,0,0,1,1.57,5V102.7Z"/><path class="cls-4" d="M647.71,97.64a3.92,3.92,0,0,1,.62-2.28,5.6,5.6,0,0,1,1.4-1.46A6.53,6.53,0,0,1,651.8,93a5.91,5.91,0,0,1-1.87-.66,4.9,4.9,0,0,1-1.27-1.15,3,3,0,0,1-.56-1.89,4.13,4.13,0,0,1,.39-1.87,4,4,0,0,1,1-1.29,3.72,3.72,0,0,1,1.33-.74,4.34,4.34,0,0,1,1.38-.23,10.6,10.6,0,0,1,1.35.07c.37,0,.69.11,1,.16s.55.15.78.23v2.54l-.74-.28-.8-.17a5,5,0,0,0-1-.1,1.8,1.8,0,0,0-1.23.47,1.55,1.55,0,0,0-.53,1.21,2,2,0,0,0,1.21,1.85,6.92,6.92,0,0,0,3.08.61v2.45a5.77,5.77,0,0,0-2.12.35,4.73,4.73,0,0,0-1.45.87,3.82,3.82,0,0,0-.84,1.13,2.72,2.72,0,0,0-.27,1.1,2.76,2.76,0,0,0,.88,2.21,4.48,4.48,0,0,0,3,.78,4.91,4.91,0,0,0,1.89-.33,3.78,3.78,0,0,0,1.31-.86,3.17,3.17,0,0,0,.74-1.19,3.85,3.85,0,0,0,.24-1.33V85.48h2.88V96.75a7,7,0,0,1-.37,2.24,5.62,5.62,0,0,1-1.21,2,6.26,6.26,0,0,1-2.18,1.48,8.49,8.49,0,0,1-3.3.57,10.48,10.48,0,0,1-3.2-.42,5.9,5.9,0,0,1-2.08-1.15A4,4,0,0,1,648,99.77,6.69,6.69,0,0,1,647.71,97.64Z"/><path class="cls-4" d="M649.11,82.59l1-2.46h7.69v-2.3h2.88v4.76Z"/><path class="cls-4" d="M668.18,102.71l-4.95-17.2H666l3.35,11.7,3.24-11.7h1.79l3.2,11.7L681,85.51h2.77l-4.91,17.2h-2l-3.32-12-3.31,12Z"/><path class="cls-4" d="M696.14,89.22a6.89,6.89,0,0,0-1.21-.82,8.37,8.37,0,0,0-1.54-.57,8.55,8.55,0,0,0-2.16-.25,3.81,3.81,0,0,0-2,.53,1.9,1.9,0,0,0-.21,3,5.9,5.9,0,0,0,1.58.86c.62.23,1.31.45,2.06.66a8,8,0,0,1,2.07.88,5.08,5.08,0,0,1,1.58,1.52,4.58,4.58,0,0,1,.64,2.59,7.85,7.85,0,0,1-.23,1.91,4,4,0,0,1-.92,1.76,4.94,4.94,0,0,1-1.87,1.27,8.41,8.41,0,0,1-3.1.48,10.6,10.6,0,0,1-2.22-.21,9.23,9.23,0,0,1-1.68-.54,8.09,8.09,0,0,1-1.44-.79V99.13a11.19,11.19,0,0,0,1.56.74,8.57,8.57,0,0,0,1.64.52,8.27,8.27,0,0,0,2,.22,3.51,3.51,0,0,0,2.65-.84,3,3,0,0,0,.78-2.16,1.84,1.84,0,0,0-.65-1.55,5.36,5.36,0,0,0-1.58-.84,20.51,20.51,0,0,0-2.06-.6,7.59,7.59,0,0,1-2.07-.82,4.8,4.8,0,0,1-1.58-1.5,4.69,4.69,0,0,1-.64-2.66,3.64,3.64,0,0,1,.47-1.85,4.38,4.38,0,0,1,1.26-1.42,6.32,6.32,0,0,1,1.86-.91,7.24,7.24,0,0,1,2.18-.33,8.53,8.53,0,0,1,2.13.23,7.39,7.39,0,0,1,1.54.55,7.47,7.47,0,0,1,1.24.77Z"/><path class="cls-4" d="M707.49,89.42l-1,2.45h-3.16a3.71,3.71,0,0,1-2.69-.8,3.48,3.48,0,0,1-.82-2.59v-1.4h2.69v1.41a.78.78,0,0,0,.31.71,2.7,2.7,0,0,0,1.33.22Zm0,8.5-1,2.45H703.4a4,4,0,0,1-2.73-.76,3.23,3.23,0,0,1-.86-2.55V95.62h2.69V97a.79.79,0,0,0,.31.71,2.73,2.73,0,0,0,1.33.21Z"/><path class="cls-4" d="M714.94,102.71l-1.56-6.16c-.08-.21-.17-.32-.29-.35a2.13,2.13,0,0,0-.49,0h-.78V93.71h1.56a3.34,3.34,0,0,1,1.5.29,2.38,2.38,0,0,1,1,1.3l1.4,5a3.58,3.58,0,0,0,1.95-.55,4.86,4.86,0,0,0,1.44-1.45,7.21,7.21,0,0,0,.9-2.07,9.3,9.3,0,0,0,.31-2.43,6.77,6.77,0,0,0-.54-2.85A6,6,0,0,0,720,89a5.08,5.08,0,0,0-1.79-1.07,5.41,5.41,0,0,0-1.8-.34,5.68,5.68,0,0,0-2.63.55A7.41,7.41,0,0,0,712,89.34a6.6,6.6,0,0,0-1.33,1.75l-1-2.42a5.78,5.78,0,0,1,1.4-1.75,8.85,8.85,0,0,1,2-1.23,7.84,7.84,0,0,1,3.23-.56,8.08,8.08,0,0,1,3.46.72,8.44,8.44,0,0,1,2.64,1.91,8.76,8.76,0,0,1,1.72,2.75,9,9,0,0,1,.61,3.23,11.14,11.14,0,0,1-.52,3.46,8.53,8.53,0,0,1-1.52,2.84A7.28,7.28,0,0,1,720.3,102a7.61,7.61,0,0,1-3.41.72Z"/><path class="cls-4" d="M726.49,91a7.36,7.36,0,0,1,1.21-2.92,7,7,0,0,1,2.23-2,7.83,7.83,0,0,1,10.24,2.11,8.42,8.42,0,0,1,1.33,2.9,13.06,13.06,0,0,1,.39,3.08,11.15,11.15,0,0,1-.63,3.94,7.77,7.77,0,0,1-1.7,2.79,6.68,6.68,0,0,1-2.52,1.66,8.73,8.73,0,0,1-3.09.54,9.44,9.44,0,0,1-3-.44,6.86,6.86,0,0,1-2.36-1.31,5.86,5.86,0,0,1-1.55-2.09,6.75,6.75,0,0,1-.55-2.75,3.71,3.71,0,0,1,.49-2.14,1.94,1.94,0,0,1,1.66-.66h3.82v2.45H730c-.45-.05-.64.14-.59.58a4.74,4.74,0,0,0,.33,1.49,3.63,3.63,0,0,0,.86,1.26,4.07,4.07,0,0,0,1.4.85,5.86,5.86,0,0,0,2,.31,4.35,4.35,0,0,0,3.82-1.71A8.18,8.18,0,0,0,739,94.11a7.55,7.55,0,0,0-1.38-4.76,4.44,4.44,0,0,0-3.69-1.77,4.71,4.71,0,0,0-2.38.53,4.91,4.91,0,0,0-1.4,1.19,4.82,4.82,0,0,0-.86,1.67Z"/><path class="cls-4" d="M744.15,85.51H747V97.88a7.76,7.76,0,0,0,2.61,1.85,4.36,4.36,0,0,0,1.72.33A3.92,3.92,0,0,0,754.56,99a4.92,4.92,0,0,0,.9-3.2V85.51h2.89V97.06a6.42,6.42,0,0,1-.37,2.07,6.68,6.68,0,0,1-1.08,1.93,5.63,5.63,0,0,1-1.75,1.44,5,5,0,0,1-2.42.56,6.54,6.54,0,0,1-2.55-.44,7.57,7.57,0,0,1-1.78-1,6,6,0,0,1-1.36-1.44v2.53h-2.89Z"/><path class="cls-4" d="M761.23,85.51h2.89v14a2.55,2.55,0,0,0,0,.52c0,.15.14.23.35.26h1.17v2.45h-1.83a2.77,2.77,0,0,1-1.9-.64,3,3,0,0,1-.72-2.28Z"/><path class="cls-4" d="M779.52,102.71V91.6a3.84,3.84,0,0,0-.47-2,3.41,3.41,0,0,0-1.18-1.23,5.14,5.14,0,0,0-1.6-.6,8.48,8.48,0,0,0-1.7-.18,4.5,4.5,0,0,0-1.81.33,7.55,7.55,0,0,0-1.31.72,4.25,4.25,0,0,0-1.05,1l2.38,1.95a2.44,2.44,0,0,0-.51.74,4.38,4.38,0,0,0-.33,1,6.85,6.85,0,0,0-.14,1.49v7.91H769v-8a8.42,8.42,0,0,1,.1-1.31,6.78,6.78,0,0,1,.25-1,4.48,4.48,0,0,1,.36-.82c-.45-.36-.84-.69-1.17-1s-.55-.44-.78-.64a1.73,1.73,0,0,1-.36-.33,9.49,9.49,0,0,1,1.68-2.26,8.73,8.73,0,0,1,2.21-1.56,6.91,6.91,0,0,1,3.23-.7,11.47,11.47,0,0,1,2.85.35,8.54,8.54,0,0,1,2.53,1,6,6,0,0,1,1.82,1.77,4.58,4.58,0,0,1,.7,2.52v9.36a1.72,1.72,0,0,1-.3,1,5.79,5.79,0,0,1-.61.8,4.07,4.07,0,0,1-.87.74Z"/><path class="cls-4" d="M795.2,102.7v-8a3.38,3.38,0,0,1-.7.32,8.36,8.36,0,0,1-1.15.21,13.75,13.75,0,0,1-1.89.1,6,6,0,0,0-1.27.16,4,4,0,0,0-1.27.51,3.18,3.18,0,0,0-1,.89,2.25,2.25,0,0,0-.39,1.33,2.07,2.07,0,0,0,.84,1.83,3.4,3.4,0,0,0,2,.59,3.94,3.94,0,0,0,.8-.08l.69-.16.58-.23v2.49a5.72,5.72,0,0,1-.54.24,5.29,5.29,0,0,1-1.6.19,6.39,6.39,0,0,1-4.16-1.23,4.46,4.46,0,0,1-1.5-3.66,4.63,4.63,0,0,1,.63-2.47,5.25,5.25,0,0,1,1.59-1.66,6.48,6.48,0,0,1,2.19-.92,10.86,10.86,0,0,1,2.38-.27,17.64,17.64,0,0,0,2.06-.1,10.07,10.07,0,0,0,1.14-.21,1.09,1.09,0,0,0,.54-.35v-.89a4,4,0,0,0-.9-2.65,3.5,3.5,0,0,0-2.84-1.07,5,5,0,0,0-2.34.53,7.16,7.16,0,0,0-1.68,1.15A7.72,7.72,0,0,0,786,91l-1-2.41a6.06,6.06,0,0,1,1.45-1.71,8.31,8.31,0,0,1,2-1.17,7.81,7.81,0,0,1,3-.52c2.31,0,4,.61,5,1.81a7.39,7.39,0,0,1,1.58,5V102.7Z"/><path class="cls-4" d="M799.92,80.13,799,82.59h-6.27a2.09,2.09,0,0,1-1.37-.44,1.37,1.37,0,0,1-.55-1.11c0-.34-.07-.56-.23-.65a.94.94,0,0,0-.47-.14h-1.32V77.87h3.15a1.53,1.53,0,0,1,1.08.46,1.42,1.42,0,0,1,.49,1,.7.7,0,0,0,.23.53.74.74,0,0,0,.55.23Z"/><path class="cls-4" d="M800.39,86.84a5.22,5.22,0,0,1,1.17-.86A9.44,9.44,0,0,1,803,85.4a6.16,6.16,0,0,1,1.89-.27,8.29,8.29,0,0,1,2.5.38,6.85,6.85,0,0,1,2.24,1.21,6.61,6.61,0,0,1,1.62,2,6.11,6.11,0,0,1,.62,2.85v11.11H809V92a5.08,5.08,0,0,0-.37-2,3.68,3.68,0,0,0-1-1.36,4,4,0,0,0-1.4-.79,5.4,5.4,0,0,0-1.6-.25,5.1,5.1,0,0,0-1.68.27,8.31,8.31,0,0,0-1.32.59,6.34,6.34,0,0,0-1.21.86Z"/><path class="cls-4" d="M814.74,85.51h2.89v14a2.55,2.55,0,0,0,0,.52c0,.15.14.23.35.26h1.17v2.45h-1.84a2.72,2.72,0,0,1-1.89-.64,3,3,0,0,1-.72-2.28Z"/><path class="cls-4" d="M826.05,102.71l-1.56-6.16c-.08-.21-.18-.32-.29-.35a2.13,2.13,0,0,0-.49,0h-.78V93.71h1.56A3.34,3.34,0,0,1,826,94a2.42,2.42,0,0,1,1,1.3l1.4,5a3.58,3.58,0,0,0,2-.55,4.86,4.86,0,0,0,1.44-1.45,7.21,7.21,0,0,0,.9-2.07,9.3,9.3,0,0,0,.31-2.43,6.77,6.77,0,0,0-.54-2.85A6,6,0,0,0,831.12,89a5.17,5.17,0,0,0-1.79-1.07,5.41,5.41,0,0,0-1.8-.34,5.65,5.65,0,0,0-2.63.55,7.22,7.22,0,0,0-1.77,1.21,6.6,6.6,0,0,0-1.33,1.75l-1-2.42a6,6,0,0,1,1.41-1.75,8.64,8.64,0,0,1,2-1.23,7.84,7.84,0,0,1,3.23-.56,8,8,0,0,1,3.45.72,8.37,8.37,0,0,1,2.65,1.91,8.56,8.56,0,0,1,1.71,2.75,8.75,8.75,0,0,1,.62,3.23,11.14,11.14,0,0,1-.52,3.46,8.53,8.53,0,0,1-1.52,2.84,7.28,7.28,0,0,1-2.47,1.95,7.61,7.61,0,0,1-3.41.72Z"/><path class="cls-4" d="M837.13,80.13l-.94,2.46h-6.28a2.09,2.09,0,0,1-1.37-.44A1.36,1.36,0,0,1,828,81c0-.34-.08-.56-.23-.65a1,1,0,0,0-.47-.14H826V77.87h3.16a1.5,1.5,0,0,1,1.07.46,1.38,1.38,0,0,1,.49,1,.79.79,0,0,0,.78.76Z"/><path class="cls-4" d="M837.59,86.84a5.46,5.46,0,0,1,1.17-.86,9.59,9.59,0,0,1,1.43-.58,6.16,6.16,0,0,1,1.89-.27,8.28,8.28,0,0,1,2.49.38,6.89,6.89,0,0,1,2.25,1.21,6.61,6.61,0,0,1,1.62,2,6.23,6.23,0,0,1,.62,2.85v11.11h-2.89V92a4.91,4.91,0,0,0-.37-2,3.66,3.66,0,0,0-1-1.36,4.1,4.1,0,0,0-1.41-.79,5.39,5.39,0,0,0-1.59-.25,5.1,5.1,0,0,0-1.68.27,8.9,8.9,0,0,0-1.33.59,6.34,6.34,0,0,0-1.21.86Z"/><path class="cls-4" d="M854.87,95.11A5.88,5.88,0,0,1,856.11,94a6.65,6.65,0,0,1,1.35-.78,3.86,3.86,0,0,1,1.66-.35v2.84a5.07,5.07,0,0,0-1.8.3,6.21,6.21,0,0,0-2.49,1.5v5.18H852V90.82a4.73,4.73,0,0,1,.6-2.38,5.59,5.59,0,0,1,1.64-1.79,8,8,0,0,1,2.34-1.14,9.39,9.39,0,0,1,2.71-.38,9.27,9.27,0,0,1,2.67.38,8.44,8.44,0,0,1,2.34,1.12,5.67,5.67,0,0,1,1.66,1.79,4.77,4.77,0,0,1,.62,2.4v11.89h-2.89V90.82a2.62,2.62,0,0,0-.35-1.35,3.16,3.16,0,0,0-1-1,4.33,4.33,0,0,0-1.41-.64,6.37,6.37,0,0,0-3.32,0,4.81,4.81,0,0,0-1.4.62,3,3,0,0,0-1,1,2.79,2.79,0,0,0-.35,1.39Z"/><path class="cls-4" d="M866.57,111.49h-2.89V109a1,1,0,0,0-.23-.64.74.74,0,0,0-.62-.29h-1.1V105.6h1.8a3.1,3.1,0,0,1,2.2.78,2.83,2.83,0,0,1,.84,2.18Z"/><path class="cls-4" d="M883.81,95.86a14.21,14.21,0,0,0,.12,2,3.21,3.21,0,0,0,.46,1.37,1.92,1.92,0,0,0,1,.75,5.09,5.09,0,0,0,1.71.24,4.27,4.27,0,0,0,1.66-.31,5.21,5.21,0,0,0,1.23-.74,6.1,6.1,0,0,0,1-1.1V85.48H894v17.23h-2.89v-2.57a6.58,6.58,0,0,1-1.21,1.46,7.22,7.22,0,0,1-1.63,1,5.88,5.88,0,0,1-2.46.45,4.42,4.42,0,0,1-2.28-.54A4.38,4.38,0,0,1,882,101.1a6,6,0,0,1-.82-1.95,9.06,9.06,0,0,1-.26-2.09V91.6a3.93,3.93,0,0,0-.46-2,3.43,3.43,0,0,0-1.19-1.23,5,5,0,0,0-1.59-.6,8.31,8.31,0,0,0-1.69-.18,4.76,4.76,0,0,0-1.86.33,5.83,5.83,0,0,0-1.28.72,3.87,3.87,0,0,0-1,1l2.33,2a2.32,2.32,0,0,0-.47.7,5,5,0,0,0-.33,1,6.55,6.55,0,0,0-.13,1.44v4.7a2.65,2.65,0,0,0,.05.53c0,.14.16.22.37.25h1.14v2.49h-1.56a3.51,3.51,0,0,1-2-.58,2.67,2.67,0,0,1-.86-2.34V94.69a7.23,7.23,0,0,1,.1-1.3,5.48,5.48,0,0,1,.25-1,4.16,4.16,0,0,1,.39-.82l-1.17-1-.78-.64a2.29,2.29,0,0,1-.35-.33,9.42,9.42,0,0,1,1.68-2.26,8.88,8.88,0,0,1,2.18-1.55,6.86,6.86,0,0,1,3.24-.7,12.19,12.19,0,0,1,2.71.31,8.4,8.4,0,0,1,2.54,1,5.92,5.92,0,0,1,1.89,1.77,4.52,4.52,0,0,1,.74,2.6Z"/><path class="cls-4" d="M899.72,102.71h-2.89V85.51h2.93l0,2.58a6.54,6.54,0,0,1,1.36-1.48,8.69,8.69,0,0,1,1.76-1,6.27,6.27,0,0,1,2.54-.46,5,5,0,0,1,2.35.54,6.17,6.17,0,0,1,1.78,1.42,6.58,6.58,0,0,1,1.13,2,6.34,6.34,0,0,1,.39,2.17v11.5h-2.89V92.38a5.4,5.4,0,0,0-.85-3.24A3.71,3.71,0,0,0,904.11,88a4.58,4.58,0,0,0-1.77.33,6.9,6.9,0,0,0-1.38.76,5.5,5.5,0,0,0-1.2,1.1Z"/><path class="cls-4" d="M923.8,85.51h3.82l-5.85,5.86a9.7,9.7,0,0,1,1.73.52A6.42,6.42,0,0,1,925.31,93a5.65,5.65,0,0,1,1.42,1.91,7,7,0,0,1,.56,3v4.87h-2.84l0-4.33a5.61,5.61,0,0,0-1.68-4.25,4.54,4.54,0,0,0-1.37-.91,5.18,5.18,0,0,0-1.13-.37l-3.43,3.51,0,6.35h-2.84V85.51h2.88v7Z"/><path class="cls-4" d="M928.81,86.84A5.46,5.46,0,0,1,930,86a9.59,9.59,0,0,1,1.43-.58,6.16,6.16,0,0,1,1.89-.27,8.28,8.28,0,0,1,2.49.38A6.89,6.89,0,0,1,938,86.72a6.61,6.61,0,0,1,1.62,2,6.23,6.23,0,0,1,.62,2.85v11.11h-2.89V92a4.91,4.91,0,0,0-.37-2,3.66,3.66,0,0,0-1-1.36,4.1,4.1,0,0,0-1.41-.79,5.39,5.39,0,0,0-1.59-.25,5.1,5.1,0,0,0-1.68.27,8.9,8.9,0,0,0-1.33.59,6.34,6.34,0,0,0-1.21.86Z"/><path class="cls-4" d="M953.85,89.22a7.29,7.29,0,0,0-1.21-.82,8.37,8.37,0,0,0-1.54-.57,8.55,8.55,0,0,0-2.16-.25,3.81,3.81,0,0,0-2,.53,1.91,1.91,0,0,0-.22,3,6.06,6.06,0,0,0,1.58.86q.94.35,2.07.66a8.33,8.33,0,0,1,2.07.88A5.08,5.08,0,0,1,954,95.05a4.58,4.58,0,0,1,.64,2.59,8.38,8.38,0,0,1-.23,1.91,4.14,4.14,0,0,1-.92,1.76,4.94,4.94,0,0,1-1.87,1.27,8.44,8.44,0,0,1-3.1.48,10.47,10.47,0,0,1-2.22-.21,9,9,0,0,1-1.68-.54,8.09,8.09,0,0,1-1.44-.79V99.13a11.62,11.62,0,0,0,1.55.74,8.8,8.8,0,0,0,1.64.52,8.39,8.39,0,0,0,1.95.22,3.49,3.49,0,0,0,2.65-.84,3.06,3.06,0,0,0,.79-2.16,1.84,1.84,0,0,0-.65-1.55,5.36,5.36,0,0,0-1.58-.84,20.51,20.51,0,0,0-2.06-.6,7.59,7.59,0,0,1-2.07-.82,4.33,4.33,0,0,1-2.22-4.16,3.73,3.73,0,0,1,.46-1.85,4.41,4.41,0,0,1,1.27-1.42,6.26,6.26,0,0,1,1.85-.91,7.31,7.31,0,0,1,2.19-.33,8.44,8.44,0,0,1,2.12.23,7.44,7.44,0,0,1,2.79,1.32Z"/><path class="cls-4" d="M967.46,102.7v-8a3.38,3.38,0,0,1-.7.32,8.36,8.36,0,0,1-1.15.21,13.75,13.75,0,0,1-1.89.1,6,6,0,0,0-1.27.16,4,4,0,0,0-1.27.51,3.18,3.18,0,0,0-1,.89,2.25,2.25,0,0,0-.39,1.33,2.07,2.07,0,0,0,.84,1.83,3.38,3.38,0,0,0,2,.59,3.94,3.94,0,0,0,.8-.08l.69-.16.58-.23v2.49a5.72,5.72,0,0,1-.54.24,5.33,5.33,0,0,1-1.6.19,6.39,6.39,0,0,1-4.16-1.23,4.46,4.46,0,0,1-1.5-3.66,4.63,4.63,0,0,1,.63-2.47,5.25,5.25,0,0,1,1.59-1.66,6.48,6.48,0,0,1,2.19-.92,10.86,10.86,0,0,1,2.38-.27,17.64,17.64,0,0,0,2.06-.1,10.07,10.07,0,0,0,1.14-.21,1.09,1.09,0,0,0,.54-.35v-.89a4,4,0,0,0-.9-2.65,3.5,3.5,0,0,0-2.84-1.07,5,5,0,0,0-2.34.53,7.16,7.16,0,0,0-1.68,1.15A7.72,7.72,0,0,0,958.3,91l-1-2.41a6.06,6.06,0,0,1,1.45-1.71,8.31,8.31,0,0,1,2-1.17,7.81,7.81,0,0,1,3-.52c2.31,0,4,.61,5,1.81a7.39,7.39,0,0,1,1.58,5V102.7Z"/><path class="cls-4" d="M972.65,86.84a5.22,5.22,0,0,1,1.17-.86,9.44,9.44,0,0,1,1.42-.58,6.16,6.16,0,0,1,1.89-.27,8.29,8.29,0,0,1,2.5.38,6.85,6.85,0,0,1,2.24,1.21,6.33,6.33,0,0,1,1.62,2,6.11,6.11,0,0,1,.63,2.85v11.11h-2.89V92a4.91,4.91,0,0,0-.37-2,3.68,3.68,0,0,0-1-1.36,4,4,0,0,0-1.4-.79,5.4,5.4,0,0,0-1.6-.25,5.1,5.1,0,0,0-1.68.27,8.31,8.31,0,0,0-1.32.59,6.34,6.34,0,0,0-1.21.86Z"/><path class="cls-4" d="M995.15,102.55a1.28,1.28,0,0,1-.43.28l-.58.16a4.26,4.26,0,0,1-.86.07,6.05,6.05,0,0,1-2.83-.66,6.47,6.47,0,0,1-2.16-1.85,8.82,8.82,0,0,1-1.39-2.87,13.51,13.51,0,0,1-.48-3.74,10.57,10.57,0,0,1,.68-4,7.93,7.93,0,0,1,1.75-2.73,7,7,0,0,1,2.46-1.56,8,8,0,0,1,2.79-.5,10.17,10.17,0,0,1,2.71.35,7.54,7.54,0,0,1,2.34,1,5.34,5.34,0,0,1,1.64,1.77,5.11,5.11,0,0,1,.6,2.52v11.89h-2.88V91a2.94,2.94,0,0,0-.39-1.54,3.2,3.2,0,0,0-1-1.05,4.53,4.53,0,0,0-1.4-.6,6.62,6.62,0,0,0-1.6-.2,4.27,4.27,0,0,0-1.62.35A4.6,4.6,0,0,0,990.94,89a6.11,6.11,0,0,0-1.17,2,8.16,8.16,0,0,0-.47,2.92,15.5,15.5,0,0,0,.2,2.49,7.46,7.46,0,0,0,.66,2.14,4,4,0,0,0,1.23,1.49,3.14,3.14,0,0,0,1.93.57,3,3,0,0,0,1.4-.28,1.13,1.13,0,0,0,.43-.27Z"/><path class="cls-4" d="M1015.82,102.71V91.6a3.84,3.84,0,0,0-.47-2,3.43,3.43,0,0,0-1.19-1.23,5,5,0,0,0-1.6-.6,8.38,8.38,0,0,0-1.69-.18,4.59,4.59,0,0,0-1.82.33,7.82,7.82,0,0,0-1.3.72,4.25,4.25,0,0,0-1,1l2.37,1.95a2.6,2.6,0,0,0-.5.74,4.38,4.38,0,0,0-.33,1,6.28,6.28,0,0,0-.14,1.49v7.91h-2.81v-8a7.35,7.35,0,0,1,.1-1.31,5.71,5.71,0,0,1,.25-1,5.31,5.31,0,0,1,.35-.82l-1.17-1L1004,90a1.83,1.83,0,0,1-.35-.33,9.23,9.23,0,0,1,1.68-2.26,8.73,8.73,0,0,1,2.21-1.56,6.88,6.88,0,0,1,3.23-.7,11.47,11.47,0,0,1,2.85.35,8.37,8.37,0,0,1,2.52,1A5.92,5.92,0,0,1,1018,88.3a4.51,4.51,0,0,1,.71,2.52v9.36a1.72,1.72,0,0,1-.3,1,6.69,6.69,0,0,1-.61.8,4.62,4.62,0,0,1-.87.74Z"/><path class="cls-4" d="M1032.24,89.22a7.29,7.29,0,0,0-1.21-.82,8.37,8.37,0,0,0-1.54-.57,8.55,8.55,0,0,0-2.16-.25,3.81,3.81,0,0,0-2,.53,1.91,1.91,0,0,0-.22,3,6.06,6.06,0,0,0,1.58.86q.94.35,2.07.66a8.33,8.33,0,0,1,2.07.88,5.08,5.08,0,0,1,1.58,1.52,4.58,4.58,0,0,1,.64,2.59,8.38,8.38,0,0,1-.23,1.91,4.14,4.14,0,0,1-.92,1.76,4.94,4.94,0,0,1-1.87,1.27,8.44,8.44,0,0,1-3.1.48,10.63,10.63,0,0,1-2.23-.21,8.87,8.87,0,0,1-1.67-.54,8.57,8.57,0,0,1-1.45-.79V99.13a12.38,12.38,0,0,0,1.56.74,8.8,8.8,0,0,0,1.64.52,8.39,8.39,0,0,0,2,.22,3.49,3.49,0,0,0,2.65-.84,3,3,0,0,0,.78-2.16,1.83,1.83,0,0,0-.64-1.55,5.36,5.36,0,0,0-1.58-.84,20,20,0,0,0-2.07-.6,7.65,7.65,0,0,1-2.06-.82,4.36,4.36,0,0,1-2.23-4.16,3.74,3.74,0,0,1,.47-1.85,4.41,4.41,0,0,1,1.27-1.42,6.26,6.26,0,0,1,1.85-.91,7.26,7.26,0,0,1,2.19-.33,8.44,8.44,0,0,1,2.12.23,7.44,7.44,0,0,1,2.79,1.32Z"/><path class="cls-4" d="M1043.59,89.42l-1,2.45h-3.16a3.76,3.76,0,0,1-2.7-.8,3.53,3.53,0,0,1-.81-2.59v-1.4h2.69v1.41a.78.78,0,0,0,.31.71,2.7,2.7,0,0,0,1.33.22Zm0,8.5-1,2.45h-3.09a4.07,4.07,0,0,1-2.73-.76,3.26,3.26,0,0,1-.85-2.55V95.62h2.69V97a.79.79,0,0,0,.31.71,2.73,2.73,0,0,0,1.33.21Z"/><path class="cls-4" d="M1051.93,103.06a5,5,0,0,1-2.43-.57,5.48,5.48,0,0,1-1.72-1.48,6,6,0,0,1-1-2,8.19,8.19,0,0,1-.32-2.24V85.48h2.89V96.9a5,5,0,0,0,.18,1.33,3.35,3.35,0,0,0,.56,1.19,3.16,3.16,0,0,0,1,.86,2.59,2.59,0,0,0,1.34.33H1054a3.14,3.14,0,0,0,1.46-.33,3.21,3.21,0,0,0,1.06-.86,3.85,3.85,0,0,0,.62-1.19,4.35,4.35,0,0,0,.21-1.33V85.48h2.89V96.75a7.53,7.53,0,0,1-.35,2.24,6.59,6.59,0,0,1-1,2,5.63,5.63,0,0,1-1.76,1.48,5.08,5.08,0,0,1-2.46.57Z"/><path class="cls-4" d="M1063.28,80.21l-1,2.38h-6.79a4.28,4.28,0,0,1-2.59-.7,3.1,3.1,0,0,1-1-2.65V77.87h2.74v1.4a.83.83,0,0,0,.31.73,2.68,2.68,0,0,0,1.32.21Z"/><path class="cls-4" d="M1062.62,91.05h2.89l2.3,9.21a4.25,4.25,0,0,0,1.75-.41,5.27,5.27,0,0,0,1.62-1.18,5.88,5.88,0,0,0,1.17-1.9,7,7,0,0,0,.45-2.62,6.92,6.92,0,0,0-.47-2.6,5.54,5.54,0,0,0-1.29-2,5.41,5.41,0,0,0-1.87-1.22A6.12,6.12,0,0,0,1067,88V85.51a9.71,9.71,0,0,1,3.33.57,8.07,8.07,0,0,1,2.79,1.68,7.78,7.78,0,0,1,1.91,2.71,9,9,0,0,1,.71,3.66,8.44,8.44,0,0,1-.71,3.49,8.69,8.69,0,0,1-1.83,2.71,8.36,8.36,0,0,1-2.53,1.76,6.91,6.91,0,0,1-2.85.62h-2.34Z"/></g></g></svg>