<?xml version="1.0" ?><!DOCTYPE svg  PUBLIC '-//W3C//DTD SVG 1.1//EN'  'http://www.w3.org/Graphics/SVG/1.1/DTD/svg11.dtd'><svg enable-background="new 0 0 91 91" height="91px" id="Layer_1" version="1.1" viewBox="0 0 91 91" width="91px" xml:space="preserve" xmlns="http://www.w3.org/2000/svg" xmlns:xlink="http://www.w3.org/1999/xlink"><g><g><g><g><path d="M87.812,29.979c0-6.299-5.123-11.422-11.42-11.422c-3.313,0-6.291,1.426-8.379,3.684l-11.598-7.088      c0.32-1.053,0.496-2.166,0.496-3.32c0-6.299-5.123-11.424-11.422-11.424S34.065,5.534,34.065,11.833      c0,0.971,0.133,1.906,0.361,2.805l-11.369,7.467c-2.08-2.18-5.006-3.547-8.25-3.547c-6.301,0-11.426,5.123-11.426,11.422      c0,5.073,3.326,9.379,7.912,10.866v11.053c-4.586,1.484-7.912,5.789-7.912,10.861c0,6.299,5.125,11.424,11.426,11.424      c3.146,0,5.998-1.279,8.066-3.346l11.424,6.326c-0.152,0.744-0.232,1.514-0.232,2.303c0,6.299,5.125,11.424,11.424,11.424      s11.422-5.125,11.422-11.424c0-0.611-0.063-1.205-0.154-1.789l11.49-6.92c2.074,2.111,4.957,3.426,8.145,3.426      c6.297,0,11.42-5.125,11.42-11.424c0-5.154-3.434-9.518-8.133-10.934v-10.91C84.378,39.499,87.812,35.134,87.812,29.979z       M76.392,23.583c3.525,0,6.395,2.869,6.395,6.396s-2.869,6.399-6.395,6.399c-3.529,0-6.398-2.872-6.398-6.399      c0-1.121,0.291-2.174,0.801-3.092c0,0,0,0,0-0.002c0.002,0,0.002,0,0.002-0.002C71.888,24.918,73.985,23.583,76.392,23.583z       M45.489,5.434c3.527,0,6.396,2.871,6.396,6.398s-2.869,6.398-6.396,6.398c-3.529,0-6.398-2.871-6.398-6.398      S41.96,5.434,45.489,5.434z M8.407,29.979c0-3.527,2.871-6.396,6.4-6.396c2.186,0,4.115,1.104,5.27,2.781      c0.066,0.184,0.146,0.363,0.26,0.535c0.049,0.076,0.117,0.133,0.174,0.203c0.438,0.865,0.691,1.842,0.691,2.877      c0,3.527-2.869,6.399-6.395,6.399C11.278,36.378,8.407,33.506,8.407,29.979z M14.808,69.157c-3.529,0-6.4-2.871-6.4-6.398      c0-3.525,2.871-6.395,6.4-6.395c3.525,0,6.395,2.869,6.395,6.395C21.202,66.286,18.333,69.157,14.808,69.157z M45.489,85.864      c-3.529,0-6.398-2.871-6.398-6.398s2.869-6.396,6.398-6.396c2.766,0,5.119,1.768,6.01,4.227c0.006,0.014,0.01,0.027,0.016,0.041      c0.236,0.668,0.371,1.381,0.371,2.129C51.886,82.993,49.017,85.864,45.489,85.864z M54.86,72.952      c-2.066-2.961-5.494-4.908-9.371-4.908c-3.711,0-7.006,1.787-9.094,4.535l-10.84-6c0.428-1.197,0.672-2.479,0.672-3.82      c0-5.783-4.326-10.564-9.908-11.309V41.29c5.582-0.742,9.908-5.525,9.908-11.311c0-1.246-0.207-2.441-0.578-3.564l11.072-7.27      c2.098,2.51,5.248,4.111,8.768,4.111c3.34,0,6.338-1.449,8.43-3.742l11.564,7.068c-0.336,1.074-0.516,2.215-0.516,3.396      c0,5.708,4.211,10.436,9.686,11.278v10.229c-5.475,0.84-9.686,5.568-9.686,11.273c0,1.305,0.23,2.555,0.635,3.725L54.86,72.952z       M82.786,62.759c0,3.527-2.869,6.398-6.395,6.398c-3.529,0-6.398-2.871-6.398-6.398c0-3.525,2.869-6.395,6.398-6.395      C79.917,56.364,82.786,59.233,82.786,62.759z"/></g></g></g></g></svg>