<svg xmlns="http://www.w3.org/2000/svg" viewBox="0 0 962.27 480.5"><defs><style>.cls-1{fill:#424242;}.cls-2{fill:none;stroke:#424242;stroke-linecap:round;stroke-linejoin:round;stroke-width:7px;}</style></defs><title>Asset 5</title><g id="Layer_2" data-name="Layer 2"><g id="Layer_2-2" data-name="Layer 2"><path class="cls-1" d="M217.81,289.2a35.07,35.07,0,0,1-13.77-15,55.52,55.52,0,0,1,0-45.39,35.15,35.15,0,0,1,13.77-15.05,39.87,39.87,0,0,1,20.65-5.27,40.36,40.36,0,0,1,20.74,5.27,35,35,0,0,1,13.86,15.05q4.85,9.78,4.84,22.69t-4.84,22.7a34.9,34.9,0,0,1-13.86,15,40.26,40.26,0,0,1-20.74,5.27A39.77,39.77,0,0,1,217.81,289.2ZM257.25,275q6.54-8.07,6.54-23.55,0-15.12-6.63-23.37t-18.7-8.25q-12.06,0-18.7,8.25t-6.63,23.37q0,15.3,6.55,23.46t18.78,8.16Q250.7,283.08,257.25,275Z"/><path class="cls-1" d="M363.41,241.09v46.24a6.83,6.83,0,0,1-1.78,4.93,6.38,6.38,0,0,1-4.85,1.87,6.42,6.42,0,0,1-6.8-6.8v-8.16a24.27,24.27,0,0,1-9.86,11.31,29.09,29.09,0,0,1-15.3,4,33.33,33.33,0,0,1-14.7-3.23,26.21,26.21,0,0,1-10.63-9,22.23,22.23,0,0,1-3.91-12.75q0-9.35,4.76-14.53T316,247.47q10.88-2.29,30.26-2.3H350v-5.61q0-10.2-4.16-15t-13.52-4.76q-11.57,0-23.46,6.29-4.59,2.9-6.46,2.89a4.37,4.37,0,0,1-3.4-1.53,5.64,5.64,0,0,1-1.36-3.91,6.39,6.39,0,0,1,1.45-4.16,17,17,0,0,1,4.67-3.66,54.81,54.81,0,0,1,13.52-5.35,60,60,0,0,1,15-2Q363.41,208.45,363.41,241.09Zm-20,35.62q6.54-6.88,6.54-17.77V254h-3.06q-15,0-22.78,1.28T313,259.54q-3.31,3-3.32,8.75a14.09,14.09,0,0,0,4.85,11,17.54,17.54,0,0,0,12.15,4.33A22.11,22.11,0,0,0,343.44,276.71Z"/><path class="cls-1" d="M460.14,174.45a6.45,6.45,0,0,1,1.87,4.76V287.33a6.64,6.64,0,0,1-1.87,4.93,6.89,6.89,0,0,1-5.1,1.87,6.58,6.58,0,0,1-5-1.87,6.84,6.84,0,0,1-1.79-4.93v-9.18a27.27,27.27,0,0,1-11,12.07,32.71,32.71,0,0,1-16.92,4.25A34.31,34.31,0,0,1,401.15,289a35.86,35.86,0,0,1-12.92-15.21,52.87,52.87,0,0,1-4.59-22.7,51.87,51.87,0,0,1,4.59-22.44,34.09,34.09,0,0,1,32.13-20.23,32.81,32.81,0,0,1,16.92,4.25,27.38,27.38,0,0,1,11,12.07V179.21a6.54,6.54,0,0,1,1.79-4.84,6.78,6.78,0,0,1,5-1.79A6.93,6.93,0,0,1,460.14,174.45ZM441.7,274.84q6.54-8.25,6.54-23.38t-6.54-23.29Q435.15,220,423.08,220t-18.78,8.16q-6.72,8.16-6.72,23,0,15.13,6.72,23.55t18.78,8.41Q435.16,283.08,441.7,274.84Z"/><path class="cls-1" d="M547.26,290.82q-11.64-3.82-18.61-10.29a7.79,7.79,0,0,1-2.55-5.95,6.66,6.66,0,0,1,1.36-4.16,4,4,0,0,1,3.23-1.79,8.27,8.27,0,0,1,4.76,1.87,57.29,57.29,0,0,0,36,12.24q14.61,0,22.44-5.61t7.82-16a12.84,12.84,0,0,0-3.74-9.6,27.1,27.1,0,0,0-9.86-5.87,149.73,149.73,0,0,0-16.49-4.59,160.11,160.11,0,0,1-22.87-6.8,35.57,35.57,0,0,1-14.45-10.2q-5.52-6.63-5.52-17.34a30.83,30.83,0,0,1,5.52-18.1,35.75,35.75,0,0,1,15.47-12.24,56.32,56.32,0,0,1,22.7-4.34,65.7,65.7,0,0,1,22.18,3.66A46.79,46.79,0,0,1,612,186.18a8.31,8.31,0,0,1,2.72,5.95,6.73,6.73,0,0,1-1.36,4.17,4,4,0,0,1-3.23,1.78,10.31,10.31,0,0,1-4.93-1.87,58.15,58.15,0,0,0-15.47-9.52A48.4,48.4,0,0,0,572.51,184q-14.12,0-21.93,5.87t-7.82,16.4q0,9,6.88,13.52t21.17,7.9q15.47,3.75,24.31,6.89a36.46,36.46,0,0,1,14.7,9.43q5.86,6.3,5.87,16.83a29.43,29.43,0,0,1-5.53,17.68,35.88,35.88,0,0,1-15.55,11.9,58.27,58.27,0,0,1-23,4.25A77.68,77.68,0,0,1,547.26,290.82Z"/><path class="cls-1" d="M700.18,216.7q7.47,8.25,7.48,24.56v46.07a6.63,6.63,0,0,1-1.87,5,6.85,6.85,0,0,1-4.93,1.78,7.06,7.06,0,0,1-5.1-1.78,6.59,6.59,0,0,1-1.87-5V241.6q0-11-4.51-16.32T675,220q-11.4,0-18.19,7T650,245.85v41.48a6.2,6.2,0,0,1-6.8,6.8,7.06,7.06,0,0,1-5.1-1.78,6.59,6.59,0,0,1-1.87-5V179.21a6.33,6.33,0,0,1,2-4.76,7,7,0,0,1,5-1.87,6.78,6.78,0,0,1,5,1.79,6.54,6.54,0,0,1,1.79,4.84v44.54a27.6,27.6,0,0,1,11.39-11.39,34.82,34.82,0,0,1,16.66-3.91Q692.69,208.45,700.18,216.7Z"/><path class="cls-1" d="M746.5,289.2a35.07,35.07,0,0,1-13.77-15q-4.85-9.78-4.84-22.7t4.84-22.69a35.15,35.15,0,0,1,13.77-15.05,39.88,39.88,0,0,1,20.66-5.27,40.36,40.36,0,0,1,20.74,5.27,35,35,0,0,1,13.85,15.05,55.52,55.52,0,0,1,0,45.39,34.94,34.94,0,0,1-13.85,15,40.26,40.26,0,0,1-20.74,5.27A39.79,39.79,0,0,1,746.5,289.2ZM785.94,275q6.54-8.07,6.55-23.55,0-15.12-6.63-23.37t-18.7-8.25q-12.07,0-18.7,8.25t-6.63,23.37q0,15.3,6.54,23.46t18.79,8.16Q779.4,283.08,785.94,275Z"/><path class="cls-1" d="M312.1,104.54S341.23,88.4,349.2,60.2c7-24.49-5.65-40-32.92-43.13A78.74,78.74,0,0,0,272.77,29.4s50.09-31.81,78.94-13.72S355.6,81.25,312.1,104.54Z"/><path class="cls-1" d="M327.86,60.15l-63.54-.09a10.17,10.17,0,0,1-10.19-10.22h0a10.17,10.17,0,0,1,10.22-10.19l63.54.1A10.16,10.16,0,0,1,338.07,50h0A10.17,10.17,0,0,1,327.86,60.15Z"/><path class="cls-1" d="M306.17,114V51.48A10.17,10.17,0,0,0,296,41.28h0a10.17,10.17,0,0,0-10.2,10.2V114A10.17,10.17,0,0,0,296,124.2h0A10.18,10.18,0,0,0,306.17,114Z"/><path class="cls-1" d="M252,114.37V49.62a10.18,10.18,0,0,0-10.21-10.2h0a10.18,10.18,0,0,0-10.2,10.2v64.75a10.17,10.17,0,0,0,10.2,10.2h0A10.17,10.17,0,0,0,252,114.37Z"/><circle class="cls-1" cx="242.07" cy="23.1" r="10.39"/><circle class="cls-1" cx="223.61" cy="5.01" r="5.01"/><circle class="cls-1" cx="262.01" cy="17.16" r="5.01"/><circle class="cls-1" cx="218.51" cy="37.1" r="5.01"/><rect class="cls-1" x="232.34" y="4.32" width="2.04" height="21.43" transform="translate(54.49 165.67) rotate(-43.79)"/><polygon class="cls-1" points="244.02 24.12 243.37 22.17 263.78 15.68 264.43 17.62 244.02 24.12"/><polygon class="cls-1" points="221.48 37.29 220.37 35.52 238.27 23.56 239.38 25.23 221.48 37.29"/><path class="cls-1" d="M372.09,122.84a4.91,4.91,0,0,1-1.32-3.63V70.77a5,5,0,0,1,5.29-5.29A5.27,5.27,0,0,1,380,66.93a5.16,5.16,0,0,1,1.45,3.84v44.64h23.23c3.3,0,5,1.46,5,4.38s-1.66,4.38-5,4.38H375.81A5,5,0,0,1,372.09,122.84Z"/><path class="cls-1" d="M445.78,86.93q4.1,4.17,4.09,12.69v20.17a4.67,4.67,0,0,1-1.32,3.51,5,5,0,0,1-3.64,1.28,4.84,4.84,0,0,1-3.51-1.32,4.61,4.61,0,0,1-1.36-3.47V118a10.81,10.81,0,0,1-4.43,5,13.28,13.28,0,0,1-7,1.82,16.28,16.28,0,0,1-7.36-1.65,13.2,13.2,0,0,1-5.21-4.55,11.56,11.56,0,0,1-1.9-6.45,10.17,10.17,0,0,1,2.28-7c1.51-1.71,4-3,7.39-3.72A67.5,67.5,0,0,1,438,100.28H440v-1.9q0-4-1.74-5.91t-5.62-1.86a17.82,17.82,0,0,0-4.88.7c-1.65.47-3.61,1.14-5.87,2a8.34,8.34,0,0,1-3.14,1.07,3.14,3.14,0,0,1-2.44-1.07,4.13,4.13,0,0,1-1-2.82,4.21,4.21,0,0,1,.71-2.43,6.62,6.62,0,0,1,2.35-2,27.4,27.4,0,0,1,6.9-2.48,36.09,36.09,0,0,1,7.9-.91Q441.69,82.75,445.78,86.93Zm-8.35,27.69a10,10,0,0,0,2.61-7.15v-1.74h-1.49a57.09,57.09,0,0,0-8.6.5,8.3,8.3,0,0,0-4.38,1.74,4.41,4.41,0,0,0-1.32,3.39,5.58,5.58,0,0,0,1.86,4.33,6.52,6.52,0,0,0,4.59,1.7A8.8,8.8,0,0,0,437.43,114.62Z"/><path class="cls-1" d="M497.9,66.8a4.43,4.43,0,0,1,1.49,3.47V119.7a4.65,4.65,0,0,1-1.41,3.56,5.9,5.9,0,0,1-7.44,0,4.64,4.64,0,0,1-1.4-3.56v-2.06a13,13,0,0,1-5.25,5.29,15.93,15.93,0,0,1-7.81,1.9,16.67,16.67,0,0,1-9.3-2.65,17.51,17.51,0,0,1-6.37-7.48,25.91,25.91,0,0,1-2.27-11.11,25.13,25.13,0,0,1,2.27-11,16.71,16.71,0,0,1,15.67-9.84,16.24,16.24,0,0,1,7.77,1.82,12.72,12.72,0,0,1,5.2,5.13V70.11a4.39,4.39,0,0,1,1.37-3.35,5.16,5.16,0,0,1,3.67-1.28A5.52,5.52,0,0,1,497.9,66.8Zm-11.45,46.62q2.69-3.39,2.69-9.67t-2.69-9.63a9.15,9.15,0,0,0-7.56-3.35,9.43,9.43,0,0,0-7.69,3.31q-2.73,3.3-2.73,9.51t2.73,9.75a10.19,10.19,0,0,0,15.25.08Z"/><path class="cls-1" d="M547.66,119.7a4.87,4.87,0,0,1-1.37,3.39,4.2,4.2,0,0,1-3.18,1.49,4.88,4.88,0,0,1-3.39-1.49l-19.34-17.52V119.7a4.48,4.48,0,0,1-1.49,3.64,5.59,5.59,0,0,1-3.72,1.24,5.46,5.46,0,0,1-3.68-1.24,4.55,4.55,0,0,1-1.44-3.64V70.36a4.55,4.55,0,0,1,1.44-3.64,5.46,5.46,0,0,1,3.68-1.24,5.59,5.59,0,0,1,3.72,1.24,4.48,4.48,0,0,1,1.49,3.64v31.08l17.69-17A4.67,4.67,0,0,1,541.46,83a4.8,4.8,0,0,1,4.71,4.71,4.83,4.83,0,0,1-1.57,3.48l-13,12.06L546,116.15A4.77,4.77,0,0,1,547.66,119.7Z"/><path class="cls-1" d="M580.31,83.83a4.06,4.06,0,0,1,1.24,3.22,4.5,4.5,0,0,1-1.08,3.31,6.55,6.55,0,0,1-3.88,1.41l-2.48.24c-3.25.33-5.64,1.44-7.15,3.31a10.79,10.79,0,0,0-2.27,7V119.7a4.59,4.59,0,0,1-1.49,3.68,5.46,5.46,0,0,1-3.72,1.28,5.31,5.31,0,0,1-3.68-1.28,4.63,4.63,0,0,1-1.45-3.68v-32a4.41,4.41,0,0,1,1.45-3.55,5.31,5.31,0,0,1,3.6-1.24,5,5,0,0,1,3.47,1.2,4.39,4.39,0,0,1,1.32,3.43v3.31a12.27,12.27,0,0,1,4.67-5.63,14.41,14.41,0,0,1,6.9-2.23l1.16-.08A4.45,4.45,0,0,1,580.31,83.83Z"/><path class="cls-1" d="M615.89,86.93Q620,91.1,620,99.62v20.17a4.67,4.67,0,0,1-1.32,3.51,5,5,0,0,1-3.63,1.28,4.85,4.85,0,0,1-3.52-1.32,4.61,4.61,0,0,1-1.36-3.47V118a10.78,10.78,0,0,1-4.42,5,13.32,13.32,0,0,1-7,1.82,16.28,16.28,0,0,1-7.36-1.65,13.1,13.1,0,0,1-5.2-4.55,11.48,11.48,0,0,1-1.9-6.45,10.17,10.17,0,0,1,2.27-7q2.26-2.56,7.4-3.72a67.33,67.33,0,0,1,14.13-1.16h2.07v-1.9q0-4-1.74-5.91c-1.15-1.24-3-1.86-5.62-1.86a17.82,17.82,0,0,0-4.88.7c-1.65.47-3.61,1.14-5.86,2a8.37,8.37,0,0,1-3.15,1.07,3.11,3.11,0,0,1-2.43-1.07,4.08,4.08,0,0,1-1-2.82,4.21,4.21,0,0,1,.7-2.43,6.71,6.71,0,0,1,2.35-2,27.34,27.34,0,0,1,6.91-2.48,35.93,35.93,0,0,1,7.89-.91Q611.8,82.75,615.89,86.93Zm-8.35,27.69a10,10,0,0,0,2.61-7.15v-1.74h-1.49a57.09,57.09,0,0,0-8.6.5,8.3,8.3,0,0,0-4.38,1.74,4.41,4.41,0,0,0-1.32,3.39,5.58,5.58,0,0,0,1.86,4.33,6.52,6.52,0,0,0,4.59,1.7A8.8,8.8,0,0,0,607.54,114.62Z"/><path class="cls-1" d="M663.05,85.32a17.18,17.18,0,0,1,6.32,7.27,25,25,0,0,1,2.28,11,25.76,25.76,0,0,1-2.28,11.11,17.42,17.42,0,0,1-6.36,7.48,16.71,16.71,0,0,1-9.3,2.65,15.9,15.9,0,0,1-7.81-1.9,12.92,12.92,0,0,1-5.25-5.29v2.06a4.65,4.65,0,0,1-1.41,3.56,5.19,5.19,0,0,1-3.72,1.32,5.05,5.05,0,0,1-3.67-1.32,4.73,4.73,0,0,1-1.37-3.56V70.27a4.46,4.46,0,0,1,1.45-3.47,5.36,5.36,0,0,1,3.76-1.32,5.41,5.41,0,0,1,3.72,1.24,4.28,4.28,0,0,1,1.4,3.39V89.62A12.42,12.42,0,0,1,646,84.53a16.36,16.36,0,0,1,7.69-1.78A17.08,17.08,0,0,1,663.05,85.32Zm-4.46,28q2.71-3.48,2.72-9.75t-2.68-9.51a10.44,10.44,0,0,0-15.29,0q-2.7,3.34-2.69,9.63t2.69,9.67a10.19,10.19,0,0,0,15.25-.08Z"/><path class="cls-1" d="M710.21,86.93q4.1,4.17,4.09,12.69v20.17A4.67,4.67,0,0,1,713,123.3a5,5,0,0,1-3.64,1.28,4.84,4.84,0,0,1-3.51-1.32,4.62,4.62,0,0,1-1.37-3.47V118a10.73,10.73,0,0,1-4.42,5,13.29,13.29,0,0,1-7,1.82,16.2,16.2,0,0,1-7.35-1.65,13.13,13.13,0,0,1-5.21-4.55,11.48,11.48,0,0,1-1.9-6.45,10.22,10.22,0,0,1,2.27-7c1.52-1.71,4-3,7.4-3.72a67.5,67.5,0,0,1,14.14-1.16h2.06v-1.9q0-4-1.73-5.91t-5.62-1.86a17.76,17.76,0,0,0-4.88.7c-1.65.47-3.61,1.14-5.87,2a8.34,8.34,0,0,1-3.14,1.07,3.13,3.13,0,0,1-2.44-1.07,4.13,4.13,0,0,1-.95-2.82,4.21,4.21,0,0,1,.7-2.43,6.76,6.76,0,0,1,2.36-2,27.4,27.4,0,0,1,6.9-2.48,35.93,35.93,0,0,1,7.89-.91Q706.11,82.75,710.21,86.93Zm-8.35,27.69a10,10,0,0,0,2.6-7.15v-1.74H703a56.94,56.94,0,0,0-8.59.5A8.3,8.3,0,0,0,690,108a4.41,4.41,0,0,0-1.33,3.39,5.58,5.58,0,0,0,1.86,4.33,6.52,6.52,0,0,0,4.59,1.7A8.82,8.82,0,0,0,701.86,114.62Z"/><path class="cls-1" d="M759.1,86.89q3.55,4.13,3.55,12.48V119.7a4.82,4.82,0,0,1-1.36,3.64,5.18,5.18,0,0,1-3.76,1.32,5.31,5.31,0,0,1-3.8-1.32,4.74,4.74,0,0,1-1.41-3.64V100q0-4.71-1.78-6.86T745,90.94a9.47,9.47,0,0,0-7.15,2.81,10.42,10.42,0,0,0-2.68,7.52V119.7a4.74,4.74,0,0,1-1.41,3.64,5.31,5.31,0,0,1-3.8,1.32,5.18,5.18,0,0,1-3.76-1.32,4.82,4.82,0,0,1-1.36-3.64v-32a4.54,4.54,0,0,1,1.4-3.47,5.33,5.33,0,0,1,3.8-1.32,5,5,0,0,1,3.52,1.28,4.39,4.39,0,0,1,1.36,3.35v2.23a14,14,0,0,1,5.54-5.21,16.67,16.67,0,0,1,7.85-1.82Q755.55,82.75,759.1,86.89Z"/><path class="cls-1" d="M811.09,84.24a4.66,4.66,0,0,1,1.41,3.56v32.65q0,9.49-5.29,14.38t-15.63,4.88q-9,0-15-3.39-3.06-1.81-3.06-4.38a4.48,4.48,0,0,1,.87-2.9,2.8,2.8,0,0,1,2.27-1.07,5.69,5.69,0,0,1,1.82.37c.72.25,1.46.54,2.23.87a47,47,0,0,0,5.33,1.9,20.21,20.21,0,0,0,5.42.66q10.83,0,10.83-10.58V115.9a12.63,12.63,0,0,1-5.29,5.25A16.56,16.56,0,0,1,789,123a17.07,17.07,0,0,1-15.79-9.59,22.87,22.87,0,0,1-2.31-10.5,23.54,23.54,0,0,1,2.27-10.54,16.93,16.93,0,0,1,6.41-7.1A17.71,17.71,0,0,1,789,82.75,16.68,16.68,0,0,1,797,84.61a12.63,12.63,0,0,1,5.29,5.25V87.71a4.54,4.54,0,0,1,1.4-3.47,5.9,5.9,0,0,1,7.44,0Zm-11.61,27.53c1.84-2.15,2.77-5.1,2.77-8.85s-.93-6.77-2.77-8.92a10.82,10.82,0,0,0-15.42,0q-2.8,3.23-2.81,8.92t2.81,8.85a10.84,10.84,0,0,0,15.42,0Z"/><path class="cls-1" d="M438.55,439.8q0,6.36-7.2,6.36h-45.6a6.53,6.53,0,0,1-4.92-1.86,6.38,6.38,0,0,1-1.8-4.62,9.14,9.14,0,0,1,2.76-6.48l27.36-29.4a47.37,47.37,0,0,0,7.38-10.14,20.18,20.18,0,0,0,2.34-9.18q0-5.64-3.24-8.64t-9.24-3a25.24,25.24,0,0,0-9.54,1.86,47.72,47.72,0,0,0-9.3,5.1,14.76,14.76,0,0,1-2.4,1.38,5.84,5.84,0,0,1-2.4.54,4.39,4.39,0,0,1-3.54-1.92,7.19,7.19,0,0,1-1.5-4.56,6.9,6.9,0,0,1,.66-3.12,7.88,7.88,0,0,1,2.1-2.52,41.46,41.46,0,0,1,12.36-6.66A42.86,42.86,0,0,1,407,360.48q12.35,0,19.74,6.24t7.38,16.8A31,31,0,0,1,431,397.26q-3.12,6.42-10.56,14.34l-20.76,22.08h31.68Q438.55,433.68,438.55,439.8Z"/><path class="cls-1" d="M456.79,436.14q-7.92-11.1-7.92-32.34t7.92-32.22q7.92-11.1,22.92-11.1t22.92,11.1q7.92,11.1,7.92,32.22t-7.92,32.28q-7.92,11.16-22.92,11.16T456.79,436.14Zm34.8-8.52q3.71-7.5,3.72-23.82T491.59,380a12.43,12.43,0,0,0-11.88-7.38q-8.18,0-11.88,7.44t-3.72,23.76q0,16.32,3.72,23.82t11.88,7.5Q487.87,435.12,491.59,427.62Z"/><path class="cls-1" d="M583,439.8q0,6.36-7.19,6.36H535.26q-7.32,0-7.31-6.36,0-6.12,7.31-6.12h12.49V379L536.22,386a6.21,6.21,0,0,1-3,1,5.29,5.29,0,0,1-4.26-2.16,7.47,7.47,0,0,1-1.74-4.8,6,6,0,0,1,3.12-5.4L549,363.12a13.34,13.34,0,0,1,6.84-2.16,7.29,7.29,0,0,1,5.39,2,7.62,7.62,0,0,1,2,5.64v65h12.61Q583,433.68,583,439.8Z"/><path class="cls-1" d="M651.36,410.16a21.48,21.48,0,0,1,4,13.2q0,11.16-8.4,17.46t-23.28,6.3q-14.88,0-23.28-6.3T592,423.36a21.52,21.52,0,0,1,4.08-13.26,20.1,20.1,0,0,1,11.52-7.38,20.83,20.83,0,0,1-10-7.5,20.17,20.17,0,0,1-3.6-11.94q0-10.56,7.92-16.68t21.72-6.12q13.8,0,21.72,6.12t7.92,16.68a20.65,20.65,0,0,1-3.6,12.12,19.38,19.38,0,0,1-9.84,7.32A20.5,20.5,0,0,1,651.36,410.16Zm-10.5,12q0-12.84-17.16-12.84t-17.16,12.84q0,12.84,17.16,12.84T640.86,422.16ZM608.7,384.84q0,6.12,3.78,9.3t11.22,3.18q7.44,0,11.22-3.18t3.78-9.3q0-12.24-15-12.24T608.7,384.84Z"/><rect class="cls-2" x="325.14" y="335" width="381" height="142" rx="24.2" ry="24.2"/><path class="cls-1" d="M961.2,200.85a8.73,8.73,0,0,0-1.67-4.67,10.85,10.85,0,0,0-9.37-4.17,8,8,0,0,0-4.53,1.9l-27.47,23.25a6.35,6.35,0,0,0-1.68,2.17,4.38,4.38,0,0,0,.06,3.85,6.31,6.31,0,0,0,3.31,3,4.87,4.87,0,0,0,5.35-.53l14-12-23.32,62-24-62.05a7,7,0,0,0-2.63-3.4,7.07,7.07,0,0,0-4-1.19,6.78,6.78,0,0,0-3.82,1.19,8.06,8.06,0,0,0-2.81,3.4l-24,62.22L831.41,213q-1.7-4.08-5.78-4.08a7.8,7.8,0,0,0-5,1.87,5.73,5.73,0,0,0-2.3,4.59,6.9,6.9,0,0,0,.51,2.38L847.05,289a8.2,8.2,0,0,0,7.31,4.76,8.17,8.17,0,0,0,4.42-1.27,6.91,6.91,0,0,0,2.89-3.49L885,229.36,908.42,289a8.14,8.14,0,0,0,3,3.49,7.47,7.47,0,0,0,4.16,1.27,7.76,7.76,0,0,0,4.34-1.27,8.2,8.2,0,0,0,3-3.49l27.86-70.51.43,18.69a4.55,4.55,0,0,0,.93,2.57,5.56,5.56,0,0,0,2.25,1.76,6.32,6.32,0,0,0,4.49.44,4.39,4.39,0,0,0,3-2.54,6,6,0,0,0,.45-2.61Z"/><path class="cls-1" d="M181,284.61,161.63,254a40.23,40.23,0,0,0-6.8-8.5,20.87,20.87,0,0,0-7.66-4.42q15.32-1.86,23.55-10.54t8.24-23q0-16.83-10.28-25.5t-29.84-8.67H109.57c11.26-9.42,26.21-25.85,16.34-40.67l-6.29-9.44,7.49-11.87,9.7,14.56a22.36,22.36,0,0,0,3.22,8.27c2.26,3.4,4.48,5.36,7,6.16a8.35,8.35,0,0,0,7.45-1.27c3.52-2.35,6.56-6.89,1-15.18a22.6,22.6,0,0,0-6.39-6.16L135.44,97.34a11.25,11.25,0,0,0-12.73-14.09L49.18,95.66a11.29,11.29,0,0,0-7.65,5.1L1.73,163.83a11.26,11.26,0,0,0,11.4,17.11l26.78-4.52,6.28,9.43c2.72,4.08,7.48,8.09,15.76,8.52,4.39.24,9.77-.53,16.36-2.83a87.32,87.32,0,0,0,11.23-4.87V287a7.18,7.18,0,0,0,1.88,5.19,6.71,6.71,0,0,0,5.09,1.95,6.54,6.54,0,0,0,4.94-1.95,7.21,7.21,0,0,0,1.86-5.19V242.62h21.43q8.14,0,12.92,2.64t9.17,9.6l22.79,36a7.16,7.16,0,0,0,10.62,1.79,5.18,5.18,0,0,0,2-4.17A7.14,7.14,0,0,0,181,284.61ZM148,129a11.44,11.44,0,0,1,1.4,2.62,12,12,0,0,1-1.87-2.31,10.4,10.4,0,0,1-1.07-2.11A10.4,10.4,0,0,1,148,129ZM75.35,183c-10.89,3.79-18.18,3.06-21.67-2.18l-9.52-14.29-32.52,5.5a2.28,2.28,0,0,1-2.26-1,2.24,2.24,0,0,1,0-2.46l39.79-63.07a2.24,2.24,0,0,1,1.54-1l73.53-12.42a2.26,2.26,0,0,1,2.31,3.4L108.9,123.45l9.51,14.3c7.22,10.83-12,27.8-23.24,35.26a35.27,35.27,0,0,0-3.67,2.29S81.72,180.83,75.35,183Zm62.31,48H103.31V185h34.35q14.1,0,20.9,5.61t6.81,17.17q0,11.73-6.89,17.51T137.66,231.06Z"/><path class="cls-1" d="M96.75,152.73a70.54,70.54,0,0,0,8.78-9.34,39.58,39.58,0,0,0,5.61-9.43h0a5.27,5.27,0,0,0-3.11-6.84,5.36,5.36,0,0,0-5.93,1.68c-.41.5-.81,1-1.24,1.47-1,1.07-2,2.15-3.13,3.29a105.5,105.5,0,0,1-8.34,7.38A158.9,158.9,0,0,1,69.2,154.6a112.43,112.43,0,0,1-10.07,5.1c-1.59.7-3.06,1.3-4.5,1.82-.68.25-1.36.5-2,.69l-.11,0c-4.78,1.17-4.63,5-4.55,5.74a5.17,5.17,0,0,0,5.21,4.62,8.5,8.5,0,0,0,1,0h.09c.89,0,1.82-.1,2.77-.21a46,46,0,0,0,5.35-1,65.75,65.75,0,0,0,12.09-4.2,88.75,88.75,0,0,0,11.66-6.43A83.73,83.73,0,0,0,96.75,152.73Z"/></g></g></svg>