<svg xmlns="http://www.w3.org/2000/svg" viewBox="0 0 862.06 458.46"><defs><style>.cls-1{fill:#424242;}</style></defs><title>Asset 3</title><g id="Layer_2" data-name="Layer 2"><g id="Layer_2-2" data-name="Layer 2"><path class="cls-1" d="M107.44,288.52a5.17,5.17,0,0,1-2,4.17,7.17,7.17,0,0,1-10.63-1.79l-22.78-36q-4.42-7-9.18-9.6T50,242.62H28.56V287a7.17,7.17,0,0,1-1.87,5.19,6.52,6.52,0,0,1-4.93,1.95,6.74,6.74,0,0,1-5.1-1.95A7.17,7.17,0,0,1,14.79,287V180.23a6.49,6.49,0,0,1,2-4.93,7.2,7.2,0,0,1,5.18-1.87H64.09q19.55,0,29.83,8.67t10.29,25.5q0,14.28-8.25,23T72.42,241.09a20.91,20.91,0,0,1,7.65,4.42,39.91,39.91,0,0,1,6.8,8.5l19.38,30.6A7.21,7.21,0,0,1,107.44,288.52ZM62.9,231.06q13.93,0,20.82-5.78t6.89-17.51q0-11.55-6.8-17.17T62.9,185H28.56v46.07Z" transform="translate(-14.79)"/><path class="cls-1" d="M143.05,289.2a35.07,35.07,0,0,1-13.77-15q-4.84-9.78-4.84-22.7t4.84-22.69a35.15,35.15,0,0,1,13.77-15.05,39.91,39.91,0,0,1,20.66-5.27,40.36,40.36,0,0,1,20.74,5.27,35,35,0,0,1,13.85,15.05,55.52,55.52,0,0,1,0,45.39,34.94,34.94,0,0,1-13.85,15,40.26,40.26,0,0,1-20.74,5.27A39.81,39.81,0,0,1,143.05,289.2ZM182.49,275q6.54-8.07,6.55-23.55,0-15.12-6.63-23.37t-18.7-8.25q-12.08,0-18.7,8.25t-6.63,23.37q0,15.3,6.54,23.46t18.79,8.16Q176,283.08,182.49,275Z" transform="translate(-14.79)"/><path class="cls-1" d="M288.66,241.09v46.24a6.84,6.84,0,0,1-1.79,4.93,6.36,6.36,0,0,1-4.84,1.87,6.42,6.42,0,0,1-6.8-6.8v-8.16a24.32,24.32,0,0,1-9.86,11.31,29.09,29.09,0,0,1-15.3,4,33.41,33.41,0,0,1-14.71-3.23,26.12,26.12,0,0,1-10.62-9,22.23,22.23,0,0,1-3.91-12.75q0-9.35,4.76-14.53t15.64-7.48q10.88-2.29,30.26-2.3h3.74v-5.61q0-10.2-4.17-15t-13.51-4.76q-11.56,0-23.46,6.29c-3.06,1.93-5.22,2.89-6.46,2.89a4.35,4.35,0,0,1-3.4-1.53,5.64,5.64,0,0,1-1.36-3.91,6.44,6.44,0,0,1,1.44-4.16,16.88,16.88,0,0,1,4.68-3.66,54.73,54.73,0,0,1,13.51-5.35,60.09,60.09,0,0,1,15.05-2Q288.66,208.45,288.66,241.09Zm-20,35.62q6.54-6.88,6.55-17.77V254h-3.06q-15,0-22.78,1.28t-11.14,4.25q-3.31,3-3.31,8.75a14.08,14.08,0,0,0,4.84,11,17.55,17.55,0,0,0,12.16,4.33Q262.14,283.59,268.68,276.71Z" transform="translate(-14.79)"/><path class="cls-1" d="M385.39,174.45a6.49,6.49,0,0,1,1.87,4.76V287.33a6.68,6.68,0,0,1-1.87,4.93,6.89,6.89,0,0,1-5.1,1.87,6.59,6.59,0,0,1-5-1.87,6.83,6.83,0,0,1-1.78-4.93v-9.18a27.3,27.3,0,0,1-11,12.07,32.67,32.67,0,0,1-16.91,4.25A34.29,34.29,0,0,1,326.4,289a35.79,35.79,0,0,1-12.92-15.21,52.87,52.87,0,0,1-4.59-22.7,51.87,51.87,0,0,1,4.59-22.44,34.09,34.09,0,0,1,32.13-20.23,32.77,32.77,0,0,1,16.91,4.25,27.4,27.4,0,0,1,11,12.07V179.21a6.53,6.53,0,0,1,1.78-4.84,6.78,6.78,0,0,1,5-1.79A6.93,6.93,0,0,1,385.39,174.45ZM366.94,274.84q6.54-8.25,6.55-23.38t-6.55-23.29Q360.4,220,348.33,220t-18.79,8.16q-6.72,8.16-6.71,23,0,15.13,6.71,23.55t18.79,8.41Q360.39,283.08,366.94,274.84Z" transform="translate(-14.79)"/><path class="cls-1" d="M472.51,290.82q-11.65-3.82-18.62-10.29a7.79,7.79,0,0,1-2.55-5.95,6.66,6.66,0,0,1,1.36-4.16,4,4,0,0,1,3.23-1.79,8.25,8.25,0,0,1,4.76,1.87,57.31,57.31,0,0,0,36,12.24q14.63,0,22.44-5.61t7.82-16a12.81,12.81,0,0,0-3.74-9.6,27,27,0,0,0-9.86-5.87,149.73,149.73,0,0,0-16.49-4.59,160.33,160.33,0,0,1-22.86-6.8,35.57,35.57,0,0,1-14.45-10.2q-5.54-6.63-5.53-17.34a30.77,30.77,0,0,1,5.53-18.1,35.75,35.75,0,0,1,15.47-12.24,56.27,56.27,0,0,1,22.69-4.34,65.76,65.76,0,0,1,22.19,3.66,46.82,46.82,0,0,1,17.25,10.45,8.31,8.31,0,0,1,2.72,5.95,6.67,6.67,0,0,1-1.36,4.17,4,4,0,0,1-3.23,1.78,10.35,10.35,0,0,1-4.93-1.87,58,58,0,0,0-15.47-9.52A48.37,48.37,0,0,0,497.75,184q-14.12,0-21.93,5.87T468,206.24q0,9,6.89,13.52t21.16,7.9q15.48,3.75,24.31,6.89A36.5,36.5,0,0,1,535.07,244q5.86,6.3,5.86,16.83a29.42,29.42,0,0,1-5.52,17.68,35.91,35.91,0,0,1-15.56,11.9,58.24,58.24,0,0,1-23,4.25A77.62,77.62,0,0,1,472.51,290.82Z" transform="translate(-14.79)"/><path class="cls-1" d="M625.42,216.7q7.49,8.25,7.48,24.56v46.07a6.59,6.59,0,0,1-1.87,5,6.85,6.85,0,0,1-4.93,1.78,7.09,7.09,0,0,1-5.1-1.78,6.59,6.59,0,0,1-1.87-5V241.6q0-11-4.5-16.32T600.26,220q-11.38,0-18.19,7t-6.8,18.87v41.48a6.19,6.19,0,0,1-6.8,6.8,7.09,7.09,0,0,1-5.1-1.78,6.59,6.59,0,0,1-1.87-5V179.21a6.3,6.3,0,0,1,2-4.76,7,7,0,0,1,5-1.87,6.8,6.8,0,0,1,5,1.79,6.53,6.53,0,0,1,1.78,4.84v44.54a27.66,27.66,0,0,1,11.39-11.39,34.85,34.85,0,0,1,16.66-3.91Q617.95,208.45,625.42,216.7Z" transform="translate(-14.79)"/><path class="cls-1" d="M671.75,289.2a35.07,35.07,0,0,1-13.77-15,55.52,55.52,0,0,1,0-45.39,35.15,35.15,0,0,1,13.77-15.05,39.87,39.87,0,0,1,20.65-5.27,40.36,40.36,0,0,1,20.74,5.27A35,35,0,0,1,727,228.77q4.85,9.78,4.84,22.69T727,274.16a34.9,34.9,0,0,1-13.86,15,40.26,40.26,0,0,1-20.74,5.27A39.77,39.77,0,0,1,671.75,289.2ZM711.19,275q6.54-8.07,6.54-23.55,0-15.12-6.63-23.37t-18.7-8.25q-12.07,0-18.7,8.25t-6.63,23.37q0,15.3,6.55,23.46t18.78,8.16Q704.64,283.08,711.19,275Z" transform="translate(-14.79)"/><path class="cls-1" d="M870.22,209.13a7,7,0,0,1,4.59,1.7,5.32,5.32,0,0,1,2,4.25,7.23,7.23,0,0,1-.51,2.55L848.12,289a8.07,8.07,0,0,1-3,3.49,7.73,7.73,0,0,1-4.33,1.27,7.5,7.5,0,0,1-4.17-1.27,8.11,8.11,0,0,1-3-3.49l-23.46-59.67L786.92,289a7,7,0,0,1-2.89,3.49,8.17,8.17,0,0,1-4.42,1.27A8.2,8.2,0,0,1,772.3,289L744.08,217.8a6.9,6.9,0,0,1-.51-2.38,5.72,5.72,0,0,1,2.29-4.59,7.83,7.83,0,0,1,5-1.87q4.08,0,5.78,4.08L780,275.77l24-62.22a8,8,0,0,1,2.8-3.4,6.84,6.84,0,0,1,3.83-1.19,6.93,6.93,0,0,1,6.63,4.59l24,62.05,23.46-62.39Q866.31,209.13,870.22,209.13Z" transform="translate(-14.79)"/><path class="cls-1" d="M237.35,104.54s29.12-16.14,37.1-44.34c7-24.49-5.66-40-32.93-43.13A78.7,78.7,0,0,0,198,29.4S248.11-2.41,277,15.68,280.85,81.25,237.35,104.54Z" transform="translate(-14.79)"/><path class="cls-1" d="M253.1,60.15l-63.54-.09a10.17,10.17,0,0,1-10.18-10.22h0a10.17,10.17,0,0,1,10.21-10.19l63.54.1A10.17,10.17,0,0,1,263.32,50h0A10.17,10.17,0,0,1,253.1,60.15Z" transform="translate(-14.79)"/><path class="cls-1" d="M231.41,114V51.48a10.17,10.17,0,0,0-10.2-10.2h0A10.17,10.17,0,0,0,211,51.48V114a10.17,10.17,0,0,0,10.2,10.2h0A10.17,10.17,0,0,0,231.41,114Z" transform="translate(-14.79)"/><path class="cls-1" d="M177.24,114.37V49.62A10.17,10.17,0,0,0,167,39.42h0a10.17,10.17,0,0,0-10.2,10.2v64.75a10.17,10.17,0,0,0,10.2,10.2h0A10.17,10.17,0,0,0,177.24,114.37Z" transform="translate(-14.79)"/><circle class="cls-1" cx="152.53" cy="23.1" r="10.39"/><circle class="cls-1" cx="134.07" cy="5.01" r="5.01"/><circle class="cls-1" cx="172.47" cy="17.16" r="5.01"/><circle class="cls-1" cx="128.97" cy="37.1" r="5.01"/><rect class="cls-1" x="157.58" y="4.32" width="2.04" height="21.43" transform="translate(18.91 113.94) rotate(-43.79)"/><polygon class="cls-1" points="154.47 24.12 153.83 22.17 174.23 15.68 174.88 17.62 154.47 24.12"/><polygon class="cls-1" points="131.94 37.29 130.82 35.52 148.72 23.56 149.84 25.23 131.94 37.29"/><path class="cls-1" d="M297.34,122.84a4.87,4.87,0,0,1-1.33-3.63V70.77a5,5,0,0,1,5.29-5.29,5.28,5.28,0,0,1,3.93,1.45,5.2,5.2,0,0,1,1.45,3.84v44.64H329.9q5,0,5,4.38t-5,4.38H301.06A5,5,0,0,1,297.34,122.84Z" transform="translate(-14.79)"/><path class="cls-1" d="M371,86.93q4.08,4.17,4.09,12.69v20.17a4.67,4.67,0,0,1-1.32,3.51,5,5,0,0,1-3.64,1.28,4.82,4.82,0,0,1-3.51-1.32,4.62,4.62,0,0,1-1.37-3.47V118a10.78,10.78,0,0,1-4.42,5,13.29,13.29,0,0,1-7,1.82,16.2,16.2,0,0,1-7.35-1.65,13.13,13.13,0,0,1-5.21-4.55,11.48,11.48,0,0,1-1.9-6.45,10.22,10.22,0,0,1,2.27-7c1.52-1.71,4-3,7.4-3.72a67.5,67.5,0,0,1,14.14-1.16h2.06v-1.9q0-4-1.73-5.91t-5.63-1.86a17.75,17.75,0,0,0-4.87.7c-1.65.47-3.61,1.14-5.87,2A8.34,8.34,0,0,1,344,94.41a3.13,3.13,0,0,1-2.44-1.07,4.13,4.13,0,0,1-1-2.82,4.21,4.21,0,0,1,.7-2.43,6.67,6.67,0,0,1,2.36-2,27.4,27.4,0,0,1,6.9-2.48,35.93,35.93,0,0,1,7.89-.91Q366.93,82.75,371,86.93Zm-8.35,27.69a10,10,0,0,0,2.6-7.15v-1.74h-1.49a56.94,56.94,0,0,0-8.59.5,8.3,8.3,0,0,0-4.38,1.74,4.38,4.38,0,0,0-1.33,3.39,5.58,5.58,0,0,0,1.86,4.33,6.52,6.52,0,0,0,4.59,1.7A8.82,8.82,0,0,0,362.68,114.62Z" transform="translate(-14.79)"/><path class="cls-1" d="M423.14,66.8a4.43,4.43,0,0,1,1.49,3.47V119.7a4.65,4.65,0,0,1-1.41,3.56,5.89,5.89,0,0,1-7.43,0,4.65,4.65,0,0,1-1.41-3.56v-2.06a12.92,12.92,0,0,1-5.25,5.29,15.93,15.93,0,0,1-7.81,1.9,16.71,16.71,0,0,1-9.3-2.65,17.42,17.42,0,0,1-6.36-7.48,25.76,25.76,0,0,1-2.28-11.11,25,25,0,0,1,2.28-11,16.7,16.7,0,0,1,15.66-9.84,16.21,16.21,0,0,1,7.77,1.82,12.75,12.75,0,0,1,5.21,5.13V70.11a4.39,4.39,0,0,1,1.36-3.35,5.18,5.18,0,0,1,3.68-1.28A5.51,5.51,0,0,1,423.14,66.8Zm-11.45,46.62q2.69-3.39,2.69-9.67t-2.69-9.63a9.15,9.15,0,0,0-7.56-3.35,9.43,9.43,0,0,0-7.69,3.31q-2.71,3.3-2.72,9.51t2.72,9.75a10.19,10.19,0,0,0,15.25.08Z" transform="translate(-14.79)"/><path class="cls-1" d="M472.9,119.7a4.86,4.86,0,0,1-1.36,3.39,4.2,4.2,0,0,1-3.18,1.49,4.84,4.84,0,0,1-3.39-1.49l-19.34-17.52V119.7a4.48,4.48,0,0,1-1.49,3.64,5.59,5.59,0,0,1-3.72,1.24,5.43,5.43,0,0,1-3.68-1.24,4.52,4.52,0,0,1-1.45-3.64V70.36a4.52,4.52,0,0,1,1.45-3.64,5.43,5.43,0,0,1,3.68-1.24,5.59,5.59,0,0,1,3.72,1.24,4.48,4.48,0,0,1,1.49,3.64v31.08l17.68-17A4.71,4.71,0,0,1,466.7,83a4.82,4.82,0,0,1,4.72,4.71,4.84,4.84,0,0,1-1.58,3.48l-13,12.06,14.38,12.9A4.8,4.8,0,0,1,472.9,119.7Z" transform="translate(-14.79)"/><path class="cls-1" d="M505.55,83.83a4,4,0,0,1,1.24,3.22,4.54,4.54,0,0,1-1.07,3.31,6.58,6.58,0,0,1-3.89,1.41l-2.48.24c-3.25.33-5.63,1.44-7.15,3.31a10.85,10.85,0,0,0-2.27,7V119.7a4.59,4.59,0,0,1-1.49,3.68,5.46,5.46,0,0,1-3.72,1.28,5.34,5.34,0,0,1-3.68-1.28,4.66,4.66,0,0,1-1.44-3.68v-32A4.43,4.43,0,0,1,481,84.16a5.34,5.34,0,0,1,3.6-1.24,5,5,0,0,1,3.47,1.2,4.39,4.39,0,0,1,1.32,3.43v3.31a12.33,12.33,0,0,1,4.67-5.63A14.42,14.42,0,0,1,501,83l1.15-.08A4.42,4.42,0,0,1,505.55,83.83Z" transform="translate(-14.79)"/><path class="cls-1" d="M541.14,86.93q4.1,4.17,4.09,12.69v20.17a4.67,4.67,0,0,1-1.32,3.51,5,5,0,0,1-3.64,1.28,4.84,4.84,0,0,1-3.51-1.32,4.62,4.62,0,0,1-1.37-3.47V118a10.73,10.73,0,0,1-4.42,5,13.28,13.28,0,0,1-7,1.82,16.25,16.25,0,0,1-7.36-1.65,13.13,13.13,0,0,1-5.21-4.55,11.48,11.48,0,0,1-1.9-6.45,10.22,10.22,0,0,1,2.27-7c1.52-1.71,4-3,7.4-3.72a67.5,67.5,0,0,1,14.14-1.16h2.06v-1.9q0-4-1.73-5.91T528,90.61a17.76,17.76,0,0,0-4.88.7c-1.65.47-3.61,1.14-5.87,2a8.34,8.34,0,0,1-3.14,1.07,3.13,3.13,0,0,1-2.44-1.07,4.13,4.13,0,0,1-.95-2.82,4.21,4.21,0,0,1,.7-2.43,6.76,6.76,0,0,1,2.36-2,27.4,27.4,0,0,1,6.9-2.48,35.93,35.93,0,0,1,7.89-.91Q537.06,82.75,541.14,86.93Zm-8.35,27.69a10,10,0,0,0,2.6-7.15v-1.74h-1.48a57,57,0,0,0-8.6.5,8.3,8.3,0,0,0-4.38,1.74,4.38,4.38,0,0,0-1.33,3.39,5.58,5.58,0,0,0,1.86,4.33,6.52,6.52,0,0,0,4.59,1.7A8.82,8.82,0,0,0,532.79,114.62Z" transform="translate(-14.79)"/><path class="cls-1" d="M588.29,85.32a17.27,17.27,0,0,1,6.33,7.27,25.13,25.13,0,0,1,2.27,11,25.91,25.91,0,0,1-2.27,11.11,17.51,17.51,0,0,1-6.37,7.48,16.67,16.67,0,0,1-9.3,2.65,15.93,15.93,0,0,1-7.81-1.9,13,13,0,0,1-5.25-5.29v2.06a4.68,4.68,0,0,1-1.4,3.56,5.22,5.22,0,0,1-3.72,1.32,5.07,5.07,0,0,1-3.68-1.32,4.72,4.72,0,0,1-1.36-3.56V70.27a4.49,4.49,0,0,1,1.44-3.47,6.11,6.11,0,0,1,7.48-.08,4.29,4.29,0,0,1,1.41,3.39V89.62a12.36,12.36,0,0,1,5.21-5.09A16.35,16.35,0,0,1,579,82.75,17.08,17.08,0,0,1,588.29,85.32Zm-4.46,28q2.73-3.48,2.73-9.75t-2.69-9.51a10.44,10.44,0,0,0-15.29,0q-2.69,3.34-2.69,9.63t2.69,9.67a10.19,10.19,0,0,0,15.25-.08Z" transform="translate(-14.79)"/><path class="cls-1" d="M635.45,86.93q4.09,4.17,4.09,12.69v20.17a4.67,4.67,0,0,1-1.32,3.51,5,5,0,0,1-3.64,1.28,4.84,4.84,0,0,1-3.51-1.32,4.61,4.61,0,0,1-1.36-3.47V118a10.81,10.81,0,0,1-4.43,5,13.28,13.28,0,0,1-7,1.82,16.28,16.28,0,0,1-7.36-1.65,13.1,13.1,0,0,1-5.2-4.55,11.49,11.49,0,0,1-1.91-6.45,10.17,10.17,0,0,1,2.28-7q2.26-2.56,7.4-3.72a67.33,67.33,0,0,1,14.13-1.16h2.07v-1.9q0-4-1.74-5.91t-5.62-1.86a17.82,17.82,0,0,0-4.88.7c-1.65.47-3.61,1.14-5.87,2a8.28,8.28,0,0,1-3.14,1.07A3.14,3.14,0,0,1,606,93.34a4.13,4.13,0,0,1-.95-2.82,4.21,4.21,0,0,1,.71-2.43,6.62,6.62,0,0,1,2.35-2,27.4,27.4,0,0,1,6.9-2.48,36.09,36.09,0,0,1,7.9-.91Q631.36,82.75,635.45,86.93Zm-8.35,27.69a10,10,0,0,0,2.61-7.15v-1.74h-1.49a57.09,57.09,0,0,0-8.6.5,8.3,8.3,0,0,0-4.38,1.74,4.41,4.41,0,0,0-1.32,3.39,5.58,5.58,0,0,0,1.86,4.33,6.52,6.52,0,0,0,4.59,1.7A8.8,8.8,0,0,0,627.1,114.62Z" transform="translate(-14.79)"/><path class="cls-1" d="M684.34,86.89Q687.9,91,687.9,99.37V119.7a4.82,4.82,0,0,1-1.37,3.64,5.16,5.16,0,0,1-3.76,1.32,5.33,5.33,0,0,1-3.8-1.32,4.73,4.73,0,0,1-1.4-3.64V100c0-3.14-.6-5.43-1.78-6.86s-3-2.15-5.58-2.15a9.44,9.44,0,0,0-7.15,2.81,10.43,10.43,0,0,0-2.69,7.52V119.7a4.77,4.77,0,0,1-1.4,3.64,5.34,5.34,0,0,1-3.8,1.32,5.2,5.2,0,0,1-3.77-1.32A4.86,4.86,0,0,1,650,119.7v-32a4.55,4.55,0,0,1,1.41-3.47,5.31,5.31,0,0,1,3.8-1.32,4.94,4.94,0,0,1,3.51,1.28,4.39,4.39,0,0,1,1.37,3.35v2.23a14,14,0,0,1,5.53-5.21,16.71,16.71,0,0,1,7.86-1.82Q680.78,82.75,684.34,86.89Z" transform="translate(-14.79)"/><path class="cls-1" d="M736.34,84.24a4.69,4.69,0,0,1,1.4,3.56v32.65q0,9.49-5.29,14.38t-15.62,4.88q-9,0-15.05-3.39-3-1.81-3-4.38a4.47,4.47,0,0,1,.86-2.9,2.81,2.81,0,0,1,2.28-1.07,5.74,5.74,0,0,1,1.82.37c.71.25,1.45.54,2.23.87a46.29,46.29,0,0,0,5.33,1.9,20.08,20.08,0,0,0,5.41.66q10.83,0,10.83-10.58V115.9a12.58,12.58,0,0,1-5.29,5.25,16.52,16.52,0,0,1-7.93,1.86,17.55,17.55,0,0,1-9.39-2.52,17.35,17.35,0,0,1-6.4-7.07,22.74,22.74,0,0,1-2.32-10.5,23.41,23.41,0,0,1,2.28-10.54,16.91,16.91,0,0,1,6.4-7.1,17.77,17.77,0,0,1,9.43-2.53,16.64,16.64,0,0,1,7.93,1.86,12.58,12.58,0,0,1,5.29,5.25V87.71a4.55,4.55,0,0,1,1.41-3.47,5.9,5.9,0,0,1,7.44,0Zm-11.62,27.53q2.78-3.22,2.77-8.85T724.72,94a10.8,10.8,0,0,0-15.41,0c-1.88,2.15-2.81,5.12-2.81,8.92s.93,6.7,2.81,8.85a10.83,10.83,0,0,0,15.41,0Z" transform="translate(-14.79)"/><path class="cls-1" d="M309,449.58a4.14,4.14,0,0,1,1.3,3.18q0,4.39-4.72,4.4h-64.9a4.84,4.84,0,0,1-3.59-1.31,4.23,4.23,0,0,1-1.31-3.09,5.37,5.37,0,0,1,1.63-3.92L277.67,404q8.64-9.94,12.56-17.61a33.43,33.43,0,0,0,3.91-15.33q0-10.28-5.95-15.82t-16.72-5.54a41.55,41.55,0,0,0-15.73,3,59.27,59.27,0,0,0-15.25,9.54,5.52,5.52,0,0,1-3.75,1.63,2.81,2.81,0,0,1-2.28-1.3,5,5,0,0,1-1-3.1,6.22,6.22,0,0,1,2.12-4.73,47.67,47.67,0,0,1,16.14-10.11,53.91,53.91,0,0,1,19.73-3.75q15.16,0,24,7.91t8.8,21.77a43.17,43.17,0,0,1-4.56,19.24q-4.57,9.3-15,20.87l-34.4,37.67h55.28A4.78,4.78,0,0,1,309,449.58Z" transform="translate(-14.79)"/><path class="cls-1" d="M339.31,443.54q-10.11-14.91-10.11-43.78,0-29,10.11-43.95t29.51-14.92q19.41,0,29.52,14.92t10.11,43.79q0,28.86-10.11,43.86t-29.52,15Q349.41,458.46,339.31,443.54Zm51.61-6.19Q398,425.2,398,399.6t-7.09-37.67q-7.1-12.07-22.1-12.07t-22.09,12.07q-7.1,12.06-7.1,37.67,0,25.42,7.18,37.66t22,12.23Q383.82,449.49,390.92,437.35Z" transform="translate(-14.79)"/><path class="cls-1" d="M500.58,449.58a4.14,4.14,0,0,1,1.3,3.18,4.22,4.22,0,0,1-1.22,3.26,5,5,0,0,1-3.51,1.14H443.83a4.7,4.7,0,0,1-3.34-1.14,4.86,4.86,0,0,1,0-6.44,4.49,4.49,0,0,1,3.34-1.23h21.69V355.24l-18.75,12.23a3.28,3.28,0,0,1-2.12.66,4.09,4.09,0,0,1-3.18-1.64,5.57,5.57,0,0,1-1.39-3.75A4.42,4.42,0,0,1,442.2,359l24.46-16.3a7.79,7.79,0,0,1,4.08-1.31,4.76,4.76,0,0,1,3.5,1.39,5.15,5.15,0,0,1,1.39,3.83V448.35h21.52A4.79,4.79,0,0,1,500.58,449.58Z" transform="translate(-14.79)"/><path class="cls-1" d="M599.15,408.81A29.08,29.08,0,0,1,604.94,427q0,14.68-10.52,23T564.5,458.3q-19.41,0-29.92-8.32t-10.52-23q0-10.75,5.71-18.26t16-10.44a29.13,29.13,0,0,1-14-10.43,27.89,27.89,0,0,1-5.13-16.64q0-14,9.94-22.17t27.89-8.16q17.94,0,27.88,8.16t10,22.17a27.83,27.83,0,0,1-5.14,16.64,29.06,29.06,0,0,1-13.94,10.43A29.79,29.79,0,0,1,599.15,408.81Zm-4.48,17.69q0-23.14-30.17-23.15T534.33,426.5q0,23,30.17,23T594.67,426.5Zm-50.72-38q7,6,20.55,6t20.54-6q7-6,7-16.8,0-10.43-7-16.22T564.5,349.7q-13.54,0-20.55,5.79t-7,16.22Q536.94,382.48,544,388.51Z" transform="translate(-14.79)"/></g></g></svg>