<svg xmlns="http://www.w3.org/2000/svg" viewBox="0 0 25 23.89"><title>Asset 4</title><g id="Layer_2" data-name="Layer 2"><g id="Layer_1-2" data-name="Layer 1"><path d="M20.91,8.08a4.09,4.09,0,0,0-1,8.06A7.46,7.46,0,0,1,12.5,22.9c-3,0-5.45-2-5.45-4.46V9.05a5,5,0,0,0,4.3-4.49,2.4,2.4,0,1,0-1,.22,4,4,0,0,1-7.94,0,2.38,2.38,0,1,0-1-.22A5,5,0,0,0,6.06,9.1v9.74l0,.12h0c.31,2.77,3.1,4.93,6.4,4.93a8.46,8.46,0,0,0,8.37-7.62h0a4.1,4.1,0,0,0,0-8.19ZM24,12.18a3.12,3.12,0,1,1-3.11-3.12A3.11,3.11,0,0,1,24,12.18ZM8.92,2.39a1.42,1.42,0,0,1,2.83,0,1.42,1.42,0,1,1-2.83,0ZM2.39,3.81A1.42,1.42,0,1,1,3.81,2.39,1.42,1.42,0,0,1,2.39,3.81Z"/><path d="M20.91,9.42a2.76,2.76,0,1,0,2.75,2.76A2.77,2.77,0,0,0,20.91,9.42Zm1.78,2.76a1.78,1.78,0,1,1-1.78-1.78A1.78,1.78,0,0,1,22.69,12.18Z"/></g></g></svg>