<svg xmlns="http://www.w3.org/2000/svg" viewBox="0 0 1426.67 967.51"><defs><style>.cls-1{fill:#424242;}.cls-2{fill:none;}.cls-3{fill:#fbc02d;}.cls-4{fill:#777;}.cls-5{fill:#d3a31c;}</style></defs><title>Asset 6</title><g id="Layer_2" data-name="Layer 2"><g id="Layer_1-2" data-name="Layer 1"><path class="cls-1" d="M722,214c-2.76,0-5-2-5-4.39v-194c0-2.42,2.24-4.39,5-4.39s5,2,5,4.39v194C727,212,724.72,214,722,214Z"/><path class="cls-2" d="M808.79,21.61,746,81.73c12,.57,27,3.85,44.12,7.68l67-61.91C840.91,27,808.79,21.61,808.79,21.61Z"/><path class="cls-2" d="M802,92.05c33.13,7.25,68.71,13.62,94,2.55v-72a90.43,90.43,0,0,1-23.87,4.7Z"/><path d="M725.84,3.38a17.06,17.06,0,0,0-8.76,11.27c-.6,2.37,1.11,4.71,3.81,5.23a5,5,0,0,0,6-3.35,8.29,8.29,0,0,1,4.25-5.68,18,18,0,0,1,6.25-1.78V.22A29.9,29.9,0,0,0,725.84,3.38Z"/><path d="M731.88,81.39s-3.93,2.49-6,3.63a17.08,17.08,0,0,0-8.76,11.27c-.6,2.37,1.11,4.71,3.81,5.23a5,5,0,0,0,6-3.34,8.31,8.31,0,0,1,4.25-5.69,18,18,0,0,1,6.25-1.78V76.16Z"/><path class="cls-3" d="M857.1,27.5c-16.19-.55-48.31-5.89-48.31-5.89L746,81.73c12,.57,27,3.85,44.12,7.68Z"/><path d="M789.18,98.26l4.09.91.46.5.35-.32c21.66,4.82,46,9.9,68.46,9.9,14.86,0,28.92-2.22,40.89-8.2l.15-.09c.15-.08.29-.18.44-.27l.35-.26a3.26,3.26,0,0,0,.33-.31,3.19,3.19,0,0,0,.31-.33,2.9,2.9,0,0,0,.25-.36,2.41,2.41,0,0,0,.23-.36c.07-.13.12-.27.18-.41s.1-.26.14-.4.06-.27.08-.4a3.75,3.75,0,0,0,.05-.47s0-.1,0-.15V15.59a1.6,1.6,0,0,0,0-.23,3.56,3.56,0,0,0,0-.47,2.88,2.88,0,0,0-.11-.42,3.17,3.17,0,0,0-.14-.4,4.51,4.51,0,0,0-.22-.44c0-.07-.06-.14-.1-.21s-.08-.08-.11-.13a3.68,3.68,0,0,0-.31-.38,2.87,2.87,0,0,0-.29-.31c-.11-.11-.24-.2-.36-.3l-.37-.27c-.13-.08-.27-.15-.41-.22s-.27-.14-.42-.2-.3-.1-.45-.15l-.46-.13-.45-.07a4.91,4.91,0,0,0-.55,0l-.17,0-.26,0-.55,0-.46.09-.47.13a4.14,4.14,0,0,0-.49.19l-.24.1c-28,14-69.87,4.59-106.85-3.67-22.18-5-40.86-9.14-54.3-7.89V9.07c11.56-1.46,31.23,2.93,51.84,7.54l8.42,1.88L737.34,76.16V90.71C748.9,89.26,768.57,93.65,789.18,98.26Zm82.91-71A90.43,90.43,0,0,0,896,22.56v72c-25.27,11.07-60.85,4.7-94-2.55Zm-63.3-5.65S840.91,27,857.1,27.5l-67,61.91C773,85.58,758,82.3,746,81.73Z"/><path class="cls-1" d="M387,621.59,279.23,435a5,5,0,0,0-8.66,0L195,566,.67,902.5a5,5,0,0,0,0,5A5.39,5.39,0,0,0,1,908a5,5,0,0,0,4,2H221.83l1.42-2,5.69-8H13.66L195,586,274.9,447.51,387,641.59l11.54,20,6.37-9Z"/><path class="cls-1" d="M1426,902.59,1247,592.47,1156.1,435.1a5,5,0,0,0-8.66,0L1047,609.13l-17.11,29.63,6.37,9L1047,629.13,1151.77,447.6,1247,612.47l166,287.62H1215.7l5.63,7.91,1.48,2.09h198.86a5,5,0,0,0,4.06-2.09c.09-.14.19-.27.27-.41A5,5,0,0,0,1426,902.59Z"/><path class="cls-3" d="M1047,662.82l-10.74-15.1-6.37-9L726.36,212a5,5,0,0,0-4.07-2.1l-.33,0a5,5,0,0,0-3.75,2.08L404.87,652.61l-6.37,9L387,677.8,312.42,783.27a4.9,4.9,0,0,0,4,7.73h0a4.9,4.9,0,0,0,4-2.07L387,695.05l17-23.95,6.38-9L722,224l.33-.46,302.06,424.74,6.38,9L1047,680.07l76.54,108.85a4.9,4.9,0,0,0,4,2.08h1a4.91,4.91,0,0,0,4-7.74Z"/><path class="cls-1" d="M1258,959.62,1247,944l-24.15-33.95-1.48-2.09-5.63-7.91h-12.27l5.62,7.91,1.49,2.09,33.73,47.42h-1044L234.1,910l1.42-2,5.69-8H228.94l-5.69,8-1.42,2L195,947.78l-8.42,11.84a5,5,0,0,0,4.07,7.89H1254a5,5,0,0,0,4.08-7.89Z"/><path class="cls-4" d="M182.55,408H103a5,5,0,1,1,0-10h79.59a5,5,0,0,1,0,10Z"/><path class="cls-4" d="M182.55,464H103a5,5,0,0,1,0-10h79.59a5,5,0,0,1,0,10Z"/><path class="cls-3" d="M202,436H122.37a5,5,0,0,1,0-10H202a5,5,0,1,1,0,10Z"/><path class="cls-4" d="M526.55,723H447a5,5,0,0,1,0-10h79.59a5,5,0,0,1,0,10Z"/><path class="cls-4" d="M526.55,779H447a5,5,0,0,1,0-10h79.59a5,5,0,0,1,0,10Z"/><path class="cls-3" d="M546,751H466.37a5,5,0,1,1,0-10H546a5,5,0,0,1,0,10Z"/><path class="cls-3" d="M1307.55,397H1228a5,5,0,0,1,0-10h79.59a5,5,0,0,1,0,10Z"/><path class="cls-4" d="M1307.55,453H1228a5,5,0,0,1,0-10h79.59a5,5,0,0,1,0,10Z"/><path class="cls-4" d="M1327,425h-79.59a5,5,0,0,1,0-10H1327a5,5,0,0,1,0,10Z"/><path class="cls-4" d="M853.55,503H774a5,5,0,0,1,0-10h79.59a5,5,0,0,1,0,10Z"/><path class="cls-3" d="M853.55,559H774a5,5,0,0,1,0-10h79.59a5,5,0,0,1,0,10Z"/><path class="cls-4" d="M873,531H793.37a5,5,0,1,1,0-10H873a5,5,0,0,1,0,10Z"/><path class="cls-2" d="M216.83,164.76a51.15,51.15,0,0,0-13,0,2.77,2.77,0,0,1-3.14-2.32A2.76,2.76,0,0,1,203,159.3a53.19,53.19,0,0,1,11.3-.35c-1.86-21.45-19.65-38.42-41.08-38.42a43.83,43.83,0,0,0-34,17,24.83,24.83,0,0,1,8.86,19,2.77,2.77,0,0,1-5.54,0,19.37,19.37,0,0,0-8.87-16.26,21.81,21.81,0,0,0-1.94-1.09l-.59-.28a19,19,0,0,0-2.31-.89l-.29-.07a18.07,18.07,0,0,0-2.18-.49c-.21,0-.43-.08-.65-.1a19.2,19.2,0,0,0-21.9,19.18c0,.22,0,.45,0,.67l0,.58,0,.45c0,.36,0,.71,0,1.06V161l-1.57.75c-10.31,4.94-17.8,16.87-17.8,28.36a30,30,0,0,0,30,30h67.8l.48,0,.55,0,.75,0,.48,0h27.12a27.78,27.78,0,0,0,27.75-27.74C239.43,179.08,229.72,167.21,216.83,164.76Z"/><path class="cls-3" d="M220,159.8c-1.46-24.9-22-44.8-46.73-44.8a48.76,48.76,0,0,0-38.58,19.39c-.21-.11-.43-.19-.64-.29-.55-.26-1.1-.51-1.67-.74l-1-.35c-.56-.19-1.13-.37-1.71-.53-.32-.08-.63-.17-1-.24-.62-.14-1.25-.25-1.9-.35-.28,0-.55-.1-.83-.13a25.8,25.8,0,0,0-2.79-.16,24.93,24.93,0,0,0-24.9,24.9c0,.35,0,.7,0,1h0A38.26,38.26,0,0,0,79,190.12a35.58,35.58,0,0,0,35.54,35.54h67.8c.29,0,.58,0,.86,0l.18,0,.37,0c.28,0,.56,0,.85,0h27.12A33.31,33.31,0,0,0,245,192.39,34.05,34.05,0,0,0,220,159.8Zm-8.31,60.33H184.56l-.48,0-.75,0-.55,0-.48,0H114.5a30,30,0,0,1-30-30c0-11.49,7.49-23.42,17.8-28.36l1.57-.75v-1.75c0-.35,0-.7,0-1.06l0-.45,0-.58c0-.22,0-.45,0-.67a19.2,19.2,0,0,1,21.9-19.18c.22,0,.44.06.65.1a18.07,18.07,0,0,1,2.18.49l.29.07a19,19,0,0,1,2.31.89l.59.28a21.81,21.81,0,0,1,1.94,1.09,19.37,19.37,0,0,1,8.87,16.26,2.77,2.77,0,0,0,5.54,0,24.83,24.83,0,0,0-8.86-19,43.83,43.83,0,0,1,34-17c21.43,0,39.22,17,41.08,38.42a53.19,53.19,0,0,0-11.3.35,2.77,2.77,0,0,0,.42,5.5,2.73,2.73,0,0,0,.41,0,51.15,51.15,0,0,1,13,0c12.89,2.45,22.6,14.32,22.6,27.63A27.78,27.78,0,0,1,211.68,220.13Z"/><path class="cls-2" d="M1218.11,272.17a30,30,0,0,0,29.39,24h67.8l.48,0,.55,0,.75,0,.48,0h27.12a27.78,27.78,0,0,0,27.75-27.74c0-13.31-9.71-25.18-22.6-27.63a51.15,51.15,0,0,0-13,0,2.77,2.77,0,0,1-3.14-2.32,2.76,2.76,0,0,1,2.31-3.15,53.19,53.19,0,0,1,11.3-.35c-1.86-21.45-19.65-38.42-41.08-38.42a43.83,43.83,0,0,0-34,17,24.83,24.83,0,0,1,8.86,19,2.77,2.77,0,0,1-5.54,0,19.37,19.37,0,0,0-8.87-16.26,21.81,21.81,0,0,0-1.94-1.09l-.59-.28a19,19,0,0,0-2.31-.89l-.29-.07a18.07,18.07,0,0,0-2.18-.49c-.21,0-.43-.08-.65-.1a18.54,18.54,0,0,0-10.62,1.61,46.47,46.47,0,0,1,1.82,12.83A47,47,0,0,1,1218.11,272.17Z"/><path class="cls-1" d="M1212,265.83a39.16,39.16,0,0,1-8.92,1h-38.23c-.23,0-.45,0-.68,0l-1.06,0-.77,0-.67,0h-95.58a42.34,42.34,0,0,1-42.3-42.29c0-16.21,10.55-33,25.09-40l2.21-1.06v-2.46c0-.49,0-1,.06-1.5l0-.62,0-.82c0-.32,0-.64,0-1a27.34,27.34,0,0,1,27.3-27.3,26.83,26.83,0,0,1,3.58.27c.3,0,.6.09.9.14a24.52,24.52,0,0,1,3.08.69l.42.1a27.22,27.22,0,0,1,3.25,1.25l.82.4a27.17,27.17,0,0,1,15.25,24.45,3.9,3.9,0,0,0,7.8,0A35,35,0,0,0,1101,150.37c11.18-14.63,29.59-23.91,47.91-23.91,30.21,0,55.29,23.93,57.91,54.17a74.49,74.49,0,0,0-15.93.48,3.9,3.9,0,0,0,.59,7.76,3.79,3.79,0,0,0,.58-.05,72.13,72.13,0,0,1,18.27,0c13.52,2.57,24.56,12.5,29.32,25.15a24.9,24.9,0,0,1,6.66-4.29,47.81,47.81,0,0,0-31.52-27.85c-2.07-35.1-31-63.16-65.88-63.16A68.74,68.74,0,0,0,1094.5,146c-.29-.16-.6-.26-.9-.4-.77-.38-1.55-.73-2.35-1-.45-.18-.89-.34-1.34-.49-.79-.28-1.59-.53-2.41-.75-.45-.12-.9-.24-1.35-.34-.88-.2-1.77-.36-2.68-.49-.39-.06-.78-.14-1.18-.18a34,34,0,0,0-3.93-.24,35.14,35.14,0,0,0-35.1,35.1c0,.5,0,1,.06,1.47v0C1027.1,187.5,1016,206,1016,224.57a50.15,50.15,0,0,0,50.1,50.09h95.58c.4,0,.8,0,1.21-.05l.24,0,.52,0c.4,0,.8.05,1.21.05h38.23a47.21,47.21,0,0,0,9.72-1,35.31,35.31,0,0,1-.81-7.53C1212,266,1212,265.93,1212,265.83Z"/><path class="cls-1" d="M1241.38,220.08a38.41,38.41,0,0,1,.78,7.68,39.16,39.16,0,0,1-24.58,36.3c-.06.69-.09,1.38-.09,2.06a29.42,29.42,0,0,0,.62,6.05A47,47,0,0,0,1250,227.76a46.47,46.47,0,0,0-1.82-12.83A19.37,19.37,0,0,0,1241.38,220.08Z"/><path class="cls-3" d="M1353,235.8c-1.46-24.9-22-44.8-46.73-44.8a48.76,48.76,0,0,0-38.58,19.39c-.21-.11-.43-.19-.64-.29-.55-.26-1.1-.51-1.67-.74l-.95-.35c-.56-.19-1.13-.37-1.71-.53-.32-.08-.63-.17-1-.24-.62-.14-1.25-.25-1.9-.35-.28,0-.55-.1-.83-.13a25.8,25.8,0,0,0-2.79-.16,24.8,24.8,0,0,0-9.94,2.07,47.46,47.46,0,0,1,1.85,5.26,18.54,18.54,0,0,1,10.62-1.61c.22,0,.44.06.65.1a18.07,18.07,0,0,1,2.18.49l.29.07a19,19,0,0,1,2.31.89l.59.28a21.81,21.81,0,0,1,1.94,1.09,19.37,19.37,0,0,1,8.87,16.26,2.77,2.77,0,0,0,5.54,0,24.83,24.83,0,0,0-8.86-19,43.83,43.83,0,0,1,34-17c21.43,0,39.22,17,41.08,38.42a53.19,53.19,0,0,0-11.3.35,2.77,2.77,0,0,0,.42,5.5,2.73,2.73,0,0,0,.41,0,51.15,51.15,0,0,1,13,0c12.89,2.45,22.6,14.32,22.6,27.63a27.78,27.78,0,0,1-27.75,27.74h-27.12l-.48,0-.75,0-.55,0-.48,0h-67.8a30,30,0,0,1-29.39-24,47.85,47.85,0,0,1-5.34,1.48,35.59,35.59,0,0,0,34.73,28h67.8c.29,0,.58,0,.86,0l.18,0,.37,0c.28,0,.56,0,.85,0h27.12A33.31,33.31,0,0,0,1378,268.39,34.05,34.05,0,0,0,1353,235.8Z"/><path class="cls-1" d="M1217.49,266.12c0-.68,0-1.37.09-2.06a40.66,40.66,0,0,1-5.61,1.77c0,.1,0,.19,0,.29a35.31,35.31,0,0,0,.81,7.53,47.85,47.85,0,0,0,5.34-1.48A29.42,29.42,0,0,1,1217.49,266.12Z"/><path class="cls-1" d="M1241.38,220.08a19.37,19.37,0,0,1,6.76-5.15,47.46,47.46,0,0,0-1.85-5.26,24.9,24.9,0,0,0-6.66,4.29A40,40,0,0,1,1241.38,220.08Z"/><path class="cls-1" d="M466.77,255.76c-1.88-32.1-28.34-57.76-60.24-57.76a62.88,62.88,0,0,0-49.74,25c-.27-.14-.55-.23-.82-.36-.71-.34-1.42-.67-2.16-1-.4-.16-.81-.31-1.22-.45-.72-.25-1.46-.48-2.21-.68-.41-.11-.81-.23-1.23-.32-.8-.18-1.62-.32-2.45-.44-.36-.06-.71-.13-1.07-.17a33.13,33.13,0,0,0-3.6-.21,32.14,32.14,0,0,0-32.1,32.1c0,.45,0,.9.05,1.34v0c-14.83,8.09-25,25-25,42a45.86,45.86,0,0,0,45.81,45.81h87.42c.37,0,.73,0,1.1-.05l.23,0,.47,0c.37,0,.73.05,1.11.05h35a43,43,0,0,0,42.9-42.9C499,278.19,485.31,260.63,466.77,255.76Zm-10.71,77.77h-35c-.21,0-.42,0-.62,0l-1,0-.71,0-.61,0H330.77a38.73,38.73,0,0,1-38.68-38.68c0-14.82,9.65-30.2,23-36.57l2-1v-2.25c0-.45,0-.91.05-1.37l0-.57,0-.75c0-.29,0-.58,0-.87a25,25,0,0,1,25-25,25.43,25.43,0,0,1,3.27.24l.83.13a24.29,24.29,0,0,1,2.81.63l.38.1a24.39,24.39,0,0,1,3,1.14l.75.36a28,28,0,0,1,2.5,1.41,25,25,0,0,1,11.44,21,3.57,3.57,0,0,0,7.14,0A32,32,0,0,0,362.71,227c10.23-13.37,27.07-21.86,43.82-21.86,27.62,0,50.56,21.88,53,49.54a68,68,0,0,0-14.57.44,3.57,3.57,0,0,0,.54,7.09,3.15,3.15,0,0,0,.53,0,65.57,65.57,0,0,1,16.71,0c16.61,3.16,29.13,18.46,29.13,35.61A35.82,35.82,0,0,1,456.06,333.53Z"/><path class="cls-5" d="M1093.55,819H1014a5,5,0,0,1,0-10h79.59a5,5,0,0,1,0,10Z"/><path class="cls-4" d="M1093.55,875H1014a5,5,0,0,1,0-10h79.59a5,5,0,0,1,0,10Z"/><path class="cls-4" d="M1113,847h-79.59a5,5,0,0,1,0-10H1113a5,5,0,0,1,0,10Z"/></g></g></svg>