<svg xmlns="http://www.w3.org/2000/svg" viewBox="0 0 25 25"><title>Asset 4</title><g id="Layer_2" data-name="Layer 2"><g id="Layer_1-2" data-name="Layer 1"><rect x="7.21" y="7.21" width="10.58" height="10.58"/><path d="M20.36,0H4.64A4.64,4.64,0,0,0,0,4.64V20.36A4.64,4.64,0,0,0,4.64,25H11.5V23.58H4.64a3.22,3.22,0,0,1-3.22-3.22V4.64A3.22,3.22,0,0,1,4.64,1.42H20.36a3.22,3.22,0,0,1,3.22,3.22V20.36a3.22,3.22,0,0,1-3.22,3.22H13.5V25h6.86A4.64,4.64,0,0,0,25,20.36V4.64A4.64,4.64,0,0,0,20.36,0Z"/></g></g></svg>